<svg width="50" height="50" viewBox="0 0 50 50" fill="none" xmlns="http://www.w3.org/2000/svg">
<mask id="mask0_206_102" style="mask-type:luminance" maskUnits="userSpaceOnUse" x="5" y="5" width="40" height="40">
<path d="M45 5H5V45H45V5Z" fill="white"/>
</mask>
<g mask="url(#mask0_206_102)">
<path d="M32.0222 5.00002H17.9766C17.3194 4.99812 16.6684 5.12616 16.0609 5.37676C15.4534 5.62735 14.9015 5.99558 14.4368 6.46026C13.9721 6.92493 13.6039 7.47687 13.3533 8.08435C13.1027 8.69186 12.9747 9.34288 12.9766 10V40.0001C12.9766 42.7728 15.2493 45.0002 17.9766 45.0002H32.0222C32.6791 45.002 33.3303 44.874 33.9377 44.6233C34.5451 44.3728 35.0971 44.0044 35.5618 43.5397C36.0265 43.075 36.3946 42.523 36.6453 41.9156C36.8958 41.3082 37.024 40.6572 37.022 40.0001V10C37.024 9.34288 36.8958 8.69186 36.6453 8.08435C36.3946 7.47687 36.0265 6.92493 35.5618 6.46026C35.0971 5.99558 34.5451 5.62735 33.9377 5.37676C33.3303 5.12616 32.6791 4.99812 32.0222 5.00002ZM25.022 41.7726C23.7493 41.7726 22.7493 40.7728 22.7493 39.4999C22.7493 38.2273 23.7493 37.2272 25.022 37.2272C26.2948 37.2272 27.2948 38.2273 27.2948 39.4999C27.2948 40.7728 26.2948 41.7726 25.022 41.7726ZM34.7492 34.8182H15.2493V11.6818H34.7492V34.8182Z" fill="black"/>
</g>
</svg>
