<svg width="50" height="50" viewBox="0 0 50 50" fill="none" xmlns="http://www.w3.org/2000/svg">
<path d="M43.9815 8.35677C41.3973 6.11491 38.0686 4.91989 34.6483 5.00629C31.2283 5.09267 27.964 6.45425 25.4963 8.82372L25.0401 9.25607L24.5862 8.82372C22.1189 6.45347 18.8547 5.09121 15.4345 5.00442C12.0142 4.91762 8.68513 6.11256 6.1008 8.35461C0.869315 13.1602 0.612061 21.1545 5.5085 27.3653C9.80977 32.6905 14.4034 37.7728 19.2682 42.5885C20.0228 43.3526 20.9216 43.959 21.9124 44.3728C22.9032 44.7869 23.9663 45 25.0401 45C26.114 45 27.177 44.7869 28.1678 44.3728C29.1587 43.959 30.0574 43.3526 30.812 42.5885C35.6775 37.7711 40.2712 32.6866 44.5717 27.3588C49.4684 21.1545 49.2111 13.1624 43.9815 8.35677ZM35.8491 26.051H32.1979L28.3476 29.8988C28.0438 30.2032 27.6319 30.3742 27.2019 30.3745C27.0924 30.3745 26.9829 30.3636 26.8754 30.342C26.6126 30.288 26.3672 30.1696 26.1615 29.9971C25.9558 29.8246 25.7963 29.6037 25.6973 29.3543L22.5174 21.4031L19.9038 25.3289C19.7559 25.5513 19.5553 25.7332 19.32 25.8592C19.0846 25.9852 18.8218 26.051 18.5548 26.051H14.2313C13.8013 26.051 13.3889 25.8802 13.0848 25.5762C12.7808 25.2721 12.6099 24.8597 12.6099 24.4296C12.6099 23.9996 12.7808 23.5872 13.0848 23.2831C13.3889 22.9791 13.8013 22.8083 14.2313 22.8083H17.6901L21.5316 17.0449C21.6966 16.8013 21.9242 16.6064 22.1905 16.4809C22.4567 16.3554 22.7518 16.3038 23.0448 16.3316C23.3386 16.3625 23.6182 16.4731 23.8537 16.6514C24.0891 16.8297 24.2714 17.069 24.3808 17.3433L27.7921 25.8693L30.3861 23.2752C30.5365 23.1243 30.7151 23.0046 30.9116 22.923C31.1082 22.8414 31.319 22.7994 31.5321 22.7996H35.8556C36.2856 22.7996 36.6981 22.9704 37.0021 23.2745C37.3062 23.5786 37.477 23.9909 37.477 24.4209C37.477 24.851 37.3062 25.2634 37.0021 25.5675C36.6981 25.8716 36.2856 26.0423 35.8556 26.0423L35.8491 26.051Z" fill="black"/>
</svg>
