<svg width="50" height="50" fill="none" xmlns="http://www.w3.org/2000/svg"><path d="M4.481 2.836c-.591.092-.884.24-1.21.611C2.927 3.839 2.8 4.258 2.8 5c0 .747.127 1.161.48 1.563.491.559.797.636 2.68.672l1.668.031 1.921 9.606 1.922 9.606-2.39 2.407c-2.215 2.231-2.411 2.452-2.686 3.032-.65 1.373-.638 2.601.037 4 .177.366.453.731.855 1.13l.594.588-.186.482c-.358.922-.47 1.653-.424 2.748.033.778.093 1.163.261 1.677.826 2.532 2.956 4.29 5.609 4.63 3.212.412 6.358-1.756 7.204-4.964.238-.903.244-2.409.013-3.27l-.162-.605h9.608l-.162.605c-.231.861-.225 2.367.013 3.27 1.227 4.654 6.828 6.549 10.562 3.574a6.79 6.79 0 0 0 2.251-3.24c.266-.817.363-2.323.202-3.144-.531-2.723-2.56-4.806-5.215-5.354-.536-.111-2.316-.127-13.847-.127H10.376l2.249-2.25 2.249-2.25h10.899c12.108 0 11.205.043 11.84-.567.26-.25 1.193-2.053 4.925-9.517 5.027-10.052 4.836-9.611 4.599-10.602-.139-.58-.447-1.004-.913-1.253l-.349-.186-16.853-.022-16.853-.022-.043-.186c-.024-.103-.172-.82-.33-1.594-.351-1.727-.518-2.05-1.251-2.425l-.491-.251-2.548-.015c-1.401-.008-2.762.019-3.025.059m33.602 15.497L34.75 25H15.707l-1.316-6.604c-.723-3.632-1.314-6.632-1.312-6.667.003-.034 6.379-.062 14.171-.062h14.167l-3.334 6.666m-23.51 20.13c1.223.363 1.863 1.824 1.313 2.995-.381.812-.966 1.217-1.837 1.273-.49.032-.675.005-1.03-.147-1.568-.675-1.797-2.862-.398-3.813.661-.45 1.193-.534 1.952-.308m22.598.172a2.185 2.185 0 0 1 .584 3.381c-.479.545-1.034.765-1.804.715-.414-.026-.686-.093-.887-.217-.738-.456-1.146-1.158-1.146-1.972 0-1.677 1.769-2.714 3.253-1.907" fill-rule="evenodd" fill="#000"/></svg>