<svg width="50" height="50" viewBox="0 0 50 50" fill="none" xmlns="http://www.w3.org/2000/svg">
<path d="M16.3192 30.0442C14.1441 30.0442 12.3818 31.8065 12.3818 33.9816C12.3818 36.1565 14.1441 37.9188 16.3192 37.9188C18.4942 37.9188 20.2565 36.1565 20.2565 33.9816C20.2565 31.8065 18.4942 30.0442 16.3192 30.0442ZM16.3192 35.7532C15.3404 35.7532 14.5475 34.9604 14.5475 33.9816C14.5475 33.0028 15.3404 32.2098 16.3192 32.2098C17.298 32.2098 18.0909 33.0028 18.0909 33.9816C18.0909 34.9604 17.2979 35.7532 16.3192 35.7532Z" fill="black"/>
<path d="M35.8334 30.0442C33.6583 30.0442 31.896 31.8065 31.896 33.9816C31.896 36.1565 33.6583 37.9188 35.8334 37.9188C38.0083 37.9188 39.7708 36.1565 39.7708 33.9816C39.7708 31.8065 38.0083 30.0442 35.8334 30.0442ZM35.8334 35.7532C34.8546 35.7532 34.0616 34.9604 34.0616 33.9816C34.0616 33.0028 34.8546 32.2098 35.8334 32.2098C36.812 32.2098 37.605 33.0028 37.605 33.9816C37.605 34.9604 36.812 35.7532 35.8334 35.7532Z" fill="black"/>
<path d="M44.4918 13.3269C44.2885 12.8472 43.953 12.442 43.5272 12.1555C43.3154 12.012 43.0805 11.8976 42.8295 11.8193C42.5791 11.7416 42.3118 11.7 42.0379 11.7H18.0325C17.6932 11.7 17.3583 11.7534 17.0413 11.864C16.8039 11.9461 16.5771 12.0604 16.367 12.2046C16.052 12.419 15.7798 12.6993 15.5635 13.0286C15.3553 13.3443 15.2 13.7023 15.0962 14.0925L12.7423 20.5597L12.7317 20.6038C12.702 20.7207 12.664 20.8207 12.6192 20.9108C12.5509 21.0439 12.4671 21.1575 12.3626 21.2644C12.2582 21.3707 12.132 21.4701 11.9853 21.5639L6.41982 25.1197C5.65357 25.6088 5.18945 26.4558 5.18945 27.3644V31.2228C5.18945 31.5882 5.264 31.9412 5.3989 32.2607C5.60271 32.7396 5.93957 33.1449 6.36402 33.432C6.57593 33.5756 6.81078 33.6887 7.06182 33.7669C7.31224 33.8452 8.56752 33.9795 8.84225 33.9795H11.0695C11.0707 31.0805 13.4203 28.7315 16.3193 28.7315C19.2182 28.7315 21.5679 31.0805 21.5692 33.9795H30.5836C30.585 31.0805 32.9344 28.7315 35.8335 28.7315C38.7325 28.7315 41.082 31.0805 41.0832 33.9795H41.6551C41.6551 33.9584 41.6546 33.9372 41.6539 33.916C41.6539 33.9066 41.6532 33.8969 41.6532 33.8875H42.0379C42.4032 33.8875 42.7561 33.8123 43.0751 33.6774C43.5547 33.4736 43.9592 33.1381 44.2464 32.7129C44.3906 32.5003 44.5043 32.2661 44.5819 32.0149C44.6603 31.7645 44.7019 31.4967 44.7019 31.2226V14.3634C44.7019 13.9981 44.6266 13.6457 44.4918 13.3269ZM18.0686 24.1969C18.0686 23.8675 18.3357 23.6003 18.6651 23.6003H21.29C21.6194 23.6003 21.8866 23.8675 21.8866 24.1969C21.8866 24.5263 21.6194 24.7934 21.29 24.7934H18.6651C18.3358 24.7935 18.0686 24.5263 18.0686 24.1969ZM15.4213 21.3464C15.2522 21.1047 15.2119 20.7965 15.3131 20.5199L17.4502 14.6655L17.4719 14.5828C17.5236 14.3877 17.5962 14.2181 17.6882 14.0795C17.7703 13.9546 17.8654 13.8558 17.9716 13.7831C18.0462 13.7314 18.1195 13.6948 18.1953 13.6687C18.3103 13.6283 18.432 13.609 18.5632 13.609H21.0651C21.5628 13.609 21.9668 14.0129 21.9668 14.5107V20.8294C21.9668 21.3272 21.5628 21.7311 21.0651 21.7311H16.1602C15.8656 21.7311 15.5897 21.5875 15.4213 21.3464ZM25.2808 20.8294V14.5107C25.2808 14.0129 25.6848 13.609 26.1826 13.609H34.7198C35.2175 13.609 35.6215 14.0129 35.6215 14.5107V20.8294C35.6215 21.3272 35.2175 21.7311 34.7198 21.7311H26.1826C25.6848 21.7311 25.2808 21.3272 25.2808 20.8294Z" fill="black"/>
</svg>
