<svg width="50" height="50" viewBox="0 0 50 50" fill="none" xmlns="http://www.w3.org/2000/svg">
<path d="M31.5 28.75C29.2578 28.75 28.1796 30 24.5 30C20.8203 30 19.75 28.75 17.5 28.75C11.7031 28.75 7 33.4532 7 39.25V41.25C7 43.3204 8.67968 45 10.75 45H38.25C40.3204 45 42 43.3204 42 41.25V39.25C42 33.4532 37.2968 28.75 31.5 28.75ZM38.25 41.25H10.75V39.25C10.75 35.5312 13.7812 32.5 17.5 32.5C18.6406 32.5 20.4922 33.75 24.5 33.75C28.539 33.75 30.3516 32.5 31.5 32.5C35.2188 32.5 38.25 35.5312 38.25 39.25V41.25ZM24.5 27.5C30.711 27.5 35.75 22.4609 35.75 16.25C35.75 10.0391 30.711 5 24.5 5C18.2891 5 13.25 10.0391 13.25 16.25C13.25 22.4609 18.2891 27.5 24.5 27.5ZM24.5 8.75C28.6328 8.75 32 12.1172 32 16.25C32 20.3828 28.6328 23.75 24.5 23.75C20.3672 23.75 17 20.3828 17 16.25C17 12.1172 20.3672 8.75 24.5 8.75Z" fill="black"/>
</svg>
