<svg width="50" height="50" viewBox="0 0 50 50" fill="none" xmlns="http://www.w3.org/2000/svg">
<path d="M31.9484 5.74927H18.9417C16.7304 5.74927 14.8516 7.55228 14.8516 9.76294V40.2412C14.8516 42.4518 16.6907 44.2502 18.9019 44.2502L31.93 44.2362C34.1411 44.2362 35.9499 42.4374 35.9499 40.2265L35.9688 9.7608C35.9686 7.54219 34.1686 5.74927 31.9484 5.74927ZM23.5661 8.15564H27.3396C27.6712 8.15564 27.9412 8.42475 27.9412 8.75715C27.9412 9.08956 27.6712 9.35867 27.3396 9.35867H23.5661C23.4871 9.3587 23.4088 9.34316 23.3358 9.31294C23.2628 9.28272 23.1965 9.23842 23.1407 9.18255C23.0848 9.1267 23.0405 9.06038 23.0103 8.98738C22.98 8.91439 22.9645 8.83615 22.9645 8.75715C22.9645 8.67815 22.98 8.59992 23.0103 8.52692C23.0405 8.45394 23.0848 8.38762 23.1407 8.33175C23.1965 8.27588 23.2628 8.23158 23.3358 8.20136C23.4088 8.17115 23.4871 8.1556 23.5661 8.15564ZM21.2985 8.34707C21.5214 8.12444 21.9273 8.12139 22.1499 8.34707C22.2629 8.46059 22.3268 8.61406 22.3275 8.77428C22.3275 8.93084 22.2615 9.0868 22.1499 9.19843C22.0389 9.31004 21.882 9.37579 21.7257 9.37579C21.5664 9.37579 21.4132 9.31004 21.2985 9.19843C21.1875 9.08711 21.1242 8.93084 21.1242 8.77428C21.1239 8.61464 21.1875 8.45838 21.2985 8.34707ZM25.3315 43.058C24.3388 43.058 23.5315 42.25 23.5315 41.2577C23.5315 40.265 24.3388 39.4574 25.3315 39.4574C26.3241 39.4574 27.1314 40.265 27.1314 41.2577C27.1314 42.25 26.3238 43.058 25.3315 43.058ZM34.1016 38.234H16.957V11.4644H34.1016V38.234Z" fill="black"/>
</svg>
