<svg width="50" height="50" viewBox="0 0 50 50" fill="none" xmlns="http://www.w3.org/2000/svg">
<path d="M24.9919 5C13.968 5 5 13.9679 5 24.9917V35.8373C5 38.053 5.86631 40.1522 7.41567 41.7181L9.71472 44.0339L13.0467 45H13.0967C15.8455 45 18.0946 42.7511 18.0946 40.0022V30.1729C18.0946 27.424 15.8455 25.1751 13.0967 25.1751H13.0467L9.71472 26.1579L8.33197 27.5472V24.9917C8.33197 15.8055 15.8055 8.33194 24.9919 8.33194C34.178 8.33194 41.6514 15.8055 41.6514 24.9917V27.5456L40.2689 26.1579L36.9369 25.1751H36.887C34.1381 25.1751 31.8889 27.424 31.8889 30.1729V40.0022C31.8889 42.7511 34.1381 45 36.887 45H36.9369L40.2689 44.0339L42.5679 41.7181C44.1171 40.1522 44.9834 38.053 44.9834 35.8373V24.9917C44.9834 13.9679 36.0155 5 24.9919 5Z" fill="black"/>
</svg>
