<svg width="50" height="50" viewBox="0 0 50 50" fill="none" xmlns="http://www.w3.org/2000/svg">
<path d="M39.67 10H10.3351C9.99704 9.99918 9.67132 10.1268 9.42378 10.357C9.17621 10.5872 9.02537 10.9028 9.00169 11.2401V27.4276C9.02537 27.7649 9.17621 28.0804 9.42378 28.3107C9.67132 28.541 9.99704 28.6684 10.3351 28.6677H39.67C40.008 28.6684 40.3336 28.541 40.5813 28.3107C40.8289 28.0804 40.9797 27.7649 41.0033 27.4276V11.2401C40.9797 10.9028 40.8289 10.5872 40.5813 10.357C40.3336 10.1268 40.008 9.99918 39.67 10ZM44.897 37.8948L40.8968 30.6411C40.7704 30.4323 40.5891 30.2623 40.3728 30.1494C40.1565 30.0367 39.9135 29.9854 39.67 30.001H10.3351C10.0929 29.9839 9.85071 30.0333 9.63453 30.1437C9.41836 30.254 9.23644 30.4214 9.10836 30.6279L5.10816 37.8813C5.02194 38.0344 4.98586 38.2106 5.005 38.3852C5.02414 38.56 5.09752 38.724 5.21483 38.8548C5.35621 39.0105 5.5294 39.1338 5.72266 39.2167C5.91591 39.2996 6.1247 39.3398 6.33489 39.3348H43.6701C43.8771 39.3395 44.0828 39.3004 44.2734 39.2201C44.4644 39.1395 44.6358 39.0196 44.777 38.8683C44.8964 38.739 44.9721 38.5756 44.9936 38.4007C45.0153 38.2261 44.9814 38.0492 44.897 37.8948ZM27.6693 36.668H22.3357C21.9821 36.668 21.6429 36.5276 21.3929 36.2776C21.1428 36.0274 21.0023 35.6883 21.0023 35.3347C21.0023 34.9811 21.1428 34.6417 21.3929 34.3918C21.6429 34.1418 21.9821 34.0014 22.3357 34.0014H27.6693C28.023 34.0014 28.3621 34.1418 28.6122 34.3918C28.8622 34.6417 29.0027 34.9811 29.0027 35.3347C29.0027 35.6883 28.8622 36.0274 28.6122 36.2776C28.3621 36.5276 28.023 36.668 27.6693 36.668Z" fill="black"/>
</svg>
