<svg width="50" height="50" viewBox="0 0 50 50" fill="none" xmlns="http://www.w3.org/2000/svg">
<mask id="mask0_206_102" style="mask-type:luminance" maskUnits="userSpaceOnUse" x="6" y="5" width="39" height="40">
<path d="M44.5468 5.84741H6.24219V44.152H44.5468V5.84741Z" fill="white"/>
</mask>
<g mask="url(#mask0_206_102)">
<path d="M21.5847 30.5357H21.5772C16.4219 30.5357 12.2271 26.3401 12.2271 21.1839C12.2271 16.0278 16.4219 11.8323 21.5788 11.8323C26.7357 11.8323 30.9305 16.0271 30.9305 21.1839C30.9305 22.0989 30.7981 23.0042 30.5377 23.8735C30.3005 24.6651 29.4664 25.1147 28.6748 24.8768C27.8832 24.6397 27.4337 23.8055 27.6715 23.0139C27.8488 22.4229 27.9387 21.8072 27.9387 21.1839C27.9387 17.6775 25.086 14.8248 21.5795 14.8248C18.073 14.8248 15.2203 17.6775 15.2203 21.1839C15.2203 24.6905 18.073 27.5431 21.5795 27.5431H21.5847C22.1742 27.5431 22.7601 27.4615 23.3257 27.3008C24.121 27.0748 24.9484 27.5364 25.1735 28.3309C25.3995 29.1262 24.938 29.9537 24.1434 30.1788C23.3114 30.4152 22.4495 30.5357 21.5847 30.5357Z" fill="black"/>
<path d="M22.0279 44.152H21.1301C20.6169 44.152 20.1396 43.8886 19.8651 43.4555C18.2251 40.8609 16.1715 38.612 14.1851 36.4372C12.1599 34.219 10.2462 32.1235 8.77389 29.7227C7.07337 26.9486 6.24518 24.1513 6.24219 21.1693C6.24668 17.0732 7.84394 13.2263 10.74 10.3332C13.636 7.44094 17.4852 5.84741 21.5789 5.84741C25.6728 5.84741 29.5219 7.44094 32.4179 10.3332C35.3141 13.2263 36.9113 17.0732 36.9158 21.1655C36.9158 21.6959 36.8888 22.2302 36.8349 22.756C36.7519 23.5782 36.0172 24.1775 35.1951 24.0937C34.3729 24.0106 33.7743 23.276 33.8573 22.4537C33.9008 22.0282 33.9225 21.5949 33.9225 21.1663C33.9142 14.3702 28.3773 8.83846 21.5782 8.83846C14.7792 8.83846 9.24296 14.3709 9.23473 21.1693C9.23997 26.582 12.5557 30.2135 16.3951 34.418C18.1607 36.3519 19.9779 38.342 21.5782 40.6297C22.2605 39.6549 23.0349 38.6592 23.9536 37.5736C24.4878 36.9429 25.4319 36.8645 26.0626 37.3986C26.6932 37.9327 26.7718 38.8762 26.2383 39.5076C25.0242 40.9417 24.0882 42.1963 23.2929 43.4555C23.0183 43.8895 22.5411 44.152 22.0279 44.152Z" fill="black"/>
<path d="M34.8957 40.3363C31.1827 40.3363 28.1626 37.3162 28.1626 33.6032C28.1626 29.8902 31.1827 26.8699 34.8957 26.8699C38.6087 26.8699 41.629 29.8902 41.629 33.6032C41.629 37.3162 38.6087 40.3363 34.8957 40.3363ZM34.8957 29.8624C32.8332 29.8624 31.155 31.5404 31.155 33.6032C31.155 35.6657 32.8332 37.3437 34.8957 37.3437C36.9583 37.3437 38.6365 35.6657 38.6365 33.6032C38.6365 31.5404 36.9583 29.8624 34.8957 29.8624Z" fill="black"/>
<path d="M43.0503 44.1521C42.641 44.1521 42.2333 43.9852 41.9378 43.6575L37.4698 38.6989C36.917 38.0847 36.9664 37.1391 37.5798 36.5854C38.1941 36.0318 39.1397 36.0819 39.6934 36.6954L44.1613 41.6541C44.7141 42.2682 44.6647 43.2139 44.0513 43.7675C43.7654 44.0248 43.4071 44.1521 43.0503 44.1521Z" fill="black"/>
</g>
</svg>
