<svg width="50" height="50" fill="none" xmlns="http://www.w3.org/2000/svg"><path d="M15.459 3.376c-.468.253-.788.546-1.009.922a1.365 1.365 0 0 0 .059 1.484c.11.153 4.118 4.524 8.908 9.713 4.789 5.188 8.708 9.465 8.708 9.505 0 .04-3.919 4.317-8.708 9.505-4.79 5.189-8.799 9.561-8.91 9.716a1.437 1.437 0 0 0-.238.718c-.031.388-.005.481.244.844.397.581.88.903 1.423.947.393.033.481.007.838-.243.382-.266 19.893-21.341 19.893-21.487 0-.121-19.481-21.197-19.826-21.449-.409-.299-1.011-.375-1.382-.175" fill-rule="evenodd" fill="#000"/></svg>