<svg width="50" height="50" viewBox="0 0 50 50" fill="none" xmlns="http://www.w3.org/2000/svg">
<path fill-rule="evenodd" clip-rule="evenodd" d="M25 8.78026C26.3807 8.78026 27.5 9.7419 27.5 10.9282L27.5 38.8518C27.5 40.0381 26.3807 40.9998 25 40.9998C23.6193 40.9998 22.5 40.0381 22.5 38.8518L22.5 10.9282C22.5 9.7419 23.6193 8.78026 25 8.78026Z" fill="black"/>
<path fill-rule="evenodd" clip-rule="evenodd" d="M44.2525 22.2842C45.2372 23.1158 45.2508 24.4758 44.2829 25.3218L27.2904 40.174C26.0307 41.275 23.9693 41.275 22.7096 40.174L5.71714 25.3218C4.74922 24.4758 4.76283 23.1158 5.74745 22.2842C6.73211 21.4526 8.31494 21.4643 9.28285 22.3103L25 36.0478L40.7171 22.3103C41.685 21.4643 43.2679 21.4526 44.2525 22.2842Z" fill="black"/>
</svg>
