<svg width="50" height="50" fill="none" xmlns="http://www.w3.org/2000/svg"><path d="M4.602 14.172c-.381.194-.869.726-1.014 1.107-.144.378-.105.883.093 1.203.1.161 4.815 4.567 10.479 9.792 5.664 5.225 10.47 9.665 10.68 9.866l.381.367 10.577-9.753c5.817-5.364 10.697-9.904 10.844-10.089.504-.632.446-1.308-.169-1.977-.37-.404-.873-.683-1.234-.686-.121-.001-.41.101-.642.227-.271.148-3.787 3.339-9.847 8.938-5.184 4.789-9.457 8.719-9.494 8.732-.038.014-4.32-3.901-9.516-8.699-5.197-4.797-9.588-8.816-9.759-8.93-.436-.29-.932-.325-1.379-.098" fill-rule="evenodd" fill="#000"/></svg>