<svg width="50" height="50" viewBox="0 0 50 50" fill="none" xmlns="http://www.w3.org/2000/svg">
<path d="M31.3356 6.33623C31.1715 5.54718 30.4685 4.98469 29.6639 5.00032H19.6639C18.8593 4.98469 18.1562 5.54718 17.9999 6.33623L16.664 11.8361H32.7106L31.3356 6.33623ZM16.6249 38.1639L17.9921 43.6638C18.1562 44.4528 18.8515 45.0155 19.6562 44.9997H29.6559C30.4607 45.0155 31.1637 44.4528 31.3201 43.6638L32.656 38.1639H16.6249ZM31.3279 13.3361H17.9999C15.2422 13.3361 13 15.5783 13 18.3361V31.6718C13 34.4295 15.2422 36.6717 17.9999 36.6717H31.3356C34.0934 36.6717 36.3355 34.4295 36.3355 31.6718V18.3361C36.3277 15.5705 34.0934 13.3361 31.3279 13.3361ZM19.6639 26.6641C18.7421 26.6641 17.9999 25.9141 17.9999 25C17.9999 24.0782 18.7499 23.336 19.6639 23.336C20.5858 23.336 21.328 24.086 21.328 25C21.328 25.9219 20.5858 26.6641 19.6639 26.6641ZM24.6639 26.6641C23.742 26.6641 22.9998 25.9141 22.9998 25C22.9998 24.0782 23.7498 23.336 24.6639 23.336C25.5858 23.336 26.3279 24.086 26.3279 25C26.3279 25.9219 25.5858 26.6641 24.6639 26.6641ZM29.6639 26.6641C28.7419 26.6641 27.9998 25.9141 27.9998 25C27.9998 24.0782 28.7499 23.336 29.6639 23.336C30.5858 23.336 31.3279 24.086 31.3279 25C31.3279 25.9219 30.5858 26.6641 29.6639 26.6641Z" fill="black"/>
</svg>
