<svg width="50" height="50" viewBox="0 0 50 50" fill="none" xmlns="http://www.w3.org/2000/svg">
<path d="M25.1986 5C16.2666 5 9 12.2667 9 21.1986C9 24.8842 10.2078 28.3552 12.4929 31.2364C15.4517 34.967 24.0559 43.8246 24.4207 44.1998L25.1985 45L25.9765 44.1999C26.3414 43.8245 34.9482 34.9649 37.9075 31.2332C40.1905 28.3542 41.3972 24.8844 41.3972 21.1986C41.3972 12.2667 34.1306 5 25.1986 5ZM36.2072 29.8849C33.825 32.8889 27.4274 39.5714 25.1986 41.8828C22.9701 39.5716 16.5748 32.891 14.1931 29.888C12.2154 27.3943 11.17 24.3896 11.17 21.1986C11.17 13.4631 17.4632 7.16999 25.1986 7.16999C32.934 7.16999 39.2272 13.4631 39.2272 21.1986C39.2272 24.3898 38.1829 27.3935 36.2072 29.8849Z" fill="black"/>
<path d="M25.1988 11.4302C19.9117 11.4302 15.6104 15.7315 15.6104 21.0187C15.6104 26.3059 19.9118 30.6072 25.1988 30.6072C30.4859 30.6072 34.7874 26.3057 34.7874 21.0187C34.7874 15.7316 30.486 11.4302 25.1988 11.4302ZM25.1988 28.4372C21.1082 28.4372 17.7803 25.1093 17.7803 21.0187C17.7803 16.928 21.1083 13.6001 25.1988 13.6001C29.2894 13.6001 32.6173 16.9282 32.6173 21.0187C32.6173 25.1093 29.2894 28.4372 25.1988 28.4372Z" fill="black"/>
</svg>
