<svg width="50" height="50" viewBox="0 0 50 50" fill="none" xmlns="http://www.w3.org/2000/svg">
<path d="M35.9115 29.7786C35.1101 28.926 34.1434 28.4701 33.1187 28.4701C32.1024 28.4701 31.1275 28.9175 30.2929 29.7702L27.6819 32.4295C27.4671 32.3113 27.2523 32.2016 27.0457 32.0918C26.7482 31.9399 26.4673 31.7963 26.2277 31.6444C23.782 30.0572 21.5593 27.9889 19.4276 25.3127C18.3947 23.9788 17.7007 22.8559 17.1967 21.7163C17.8742 21.083 18.5021 20.4246 19.1136 19.7914C19.3449 19.5551 19.5763 19.3102 19.8076 19.0738C21.5428 17.3009 21.5428 15.0046 19.8076 13.2317L17.5519 10.927C17.2958 10.6653 17.0313 10.3952 16.7835 10.125C16.2878 9.60158 15.7672 9.06127 15.2301 8.55474C14.4287 7.74428 13.4702 7.31372 12.4621 7.31372C11.4541 7.31372 10.4791 7.74428 9.65282 8.55474C9.64456 8.56318 9.64456 8.56318 9.6363 8.57162L6.827 11.4673C5.76938 12.5479 5.1662 13.865 5.034 15.393C4.8357 17.8581 5.54628 20.1545 6.09162 21.6572C7.43017 25.3464 9.42973 28.7655 12.4126 32.4295C16.0316 36.8448 20.3861 40.3315 25.3601 42.7882C27.2606 43.7084 29.7972 44.7975 32.6312 44.9832C32.8048 44.9916 32.9866 45 33.1518 45C35.0605 45 36.6634 44.2993 37.9194 42.9064C37.9277 42.8895 37.9442 42.881 37.9524 42.8642C38.3821 42.3323 38.8779 41.8511 39.3984 41.3361C39.7537 40.99 40.1173 40.627 40.4725 40.2471C41.2905 39.3775 41.7202 38.3644 41.7202 37.326C41.7202 36.2792 41.2823 35.2746 40.4477 34.4303L35.9115 29.7786ZM38.8696 38.6683C38.8613 38.6768 38.8613 38.6683 38.8696 38.6683C38.5473 39.023 38.2168 39.3438 37.8616 39.6983C37.3245 40.2218 36.7791 40.7705 36.2668 41.3867C35.4323 42.2986 34.449 42.7291 33.16 42.7291C33.0361 42.7291 32.9039 42.7291 32.78 42.7207C30.326 42.5602 28.0455 41.5809 26.3352 40.7451C21.6584 38.4319 17.5519 35.1479 14.1394 30.9858C11.3219 27.5161 9.438 24.3081 8.19033 20.8636C7.42191 18.7615 7.14098 17.1236 7.26491 15.5788C7.34754 14.591 7.71936 13.7721 8.40516 13.0714L11.2227 10.1925C11.6276 9.8042 12.0573 9.59314 12.4787 9.59314C12.9992 9.59314 13.4206 9.91395 13.685 10.1841C13.6933 10.1925 13.7015 10.201 13.7098 10.2094C14.2138 10.6906 14.693 11.1887 15.197 11.7206C15.4532 11.9907 15.7176 12.2609 15.982 12.5395L18.2377 14.8442C19.1136 15.7391 19.1136 16.5664 18.2377 17.4614C17.9981 17.7062 17.7668 17.951 17.5271 18.1874C16.8331 18.9134 16.172 19.5888 15.4532 20.2473C15.4367 20.2642 15.4202 20.2726 15.4119 20.2895C14.7013 21.0155 14.8335 21.7247 14.9823 22.2059C14.9905 22.2313 14.9988 22.2565 15.007 22.2819C15.5937 23.7339 16.4199 25.1016 17.6759 26.7309L17.6842 26.7394C19.9647 29.6098 22.3691 31.847 25.0214 33.5608C25.3601 33.7803 25.7071 33.9576 26.0377 34.1264C26.3352 34.2784 26.616 34.4219 26.8557 34.5739C26.8887 34.5907 26.9218 34.6161 26.9548 34.6329C27.2358 34.7764 27.5002 34.844 27.7729 34.844C28.4586 34.844 28.8883 34.405 29.0287 34.2614L31.8546 31.3742C32.1355 31.0872 32.5817 30.7411 33.1022 30.7411C33.6145 30.7411 34.0359 31.0703 34.2921 31.3573C34.3003 31.3658 34.3003 31.3658 34.3086 31.3742L38.8613 36.0259C39.7124 36.8871 39.7124 37.7735 38.8696 38.6683Z" fill="black"/>
<path d="M26.1287 14.5148C28.2934 14.8863 30.26 15.9331 31.8299 17.5372C33.3998 19.1412 34.4161 21.1505 34.7879 23.3623C34.8788 23.9195 35.3498 24.3078 35.8868 24.3078C35.9529 24.3078 36.0107 24.2994 36.0768 24.291C36.6883 24.1897 37.0932 23.5987 36.994 22.9739C36.5478 20.2978 35.3085 17.858 33.4163 15.9247C31.5242 13.9914 29.1362 12.7251 26.517 12.2692C25.9055 12.1679 25.3354 12.5815 25.228 13.1978C25.1206 13.8141 25.5172 14.4135 26.1287 14.5148Z" fill="black"/>
<path d="M44.0749 22.6449C43.3396 18.238 41.3069 14.2279 38.1837 11.0367C35.0604 7.84554 31.1356 5.76874 26.8225 5.01738C26.2193 4.90763 25.6492 5.32974 25.5418 5.94603C25.4426 6.57076 25.8475 7.15328 26.4589 7.26302C30.3093 7.92997 33.8209 9.7957 36.6137 12.6408C39.4065 15.4942 41.2243 19.0822 41.8771 23.0164C41.9679 23.5735 42.4389 23.9618 42.976 23.9618C43.0421 23.9618 43.0999 23.9534 43.166 23.9449C43.7692 23.8521 44.1824 23.2611 44.0749 22.6449Z" fill="black"/>
</svg>
