<svg width="50" height="50" viewBox="0 0 50 50" fill="none" xmlns="http://www.w3.org/2000/svg">
<path d="M27.8919 10.1506V7.17785C27.8919 5.76088 28.7205 5.42128 29.7332 6.42321L36.4662 13.0851C37.4789 14.087 37.4789 15.7265 36.4662 16.7286L29.7332 23.3906C28.7205 24.3925 27.8919 24.0527 27.8919 22.6359V19.6629C26.5592 19.351 25.1708 19.181 23.7416 19.181C17.7824 19.181 12.5032 22.0535 9.23389 26.4729C10.3723 17.2754 18.2886 10.1506 27.8919 10.1506Z" fill="black"/>
<path d="M22.9876 39.8493V42.822C22.9876 44.239 22.1591 44.5786 21.1464 43.5766L14.4133 36.9149C13.4007 35.9129 13.4007 34.2733 14.4133 33.2713L21.1464 26.6094C22.1591 25.6073 22.9876 25.947 22.9876 27.3639V30.337C24.3204 30.6487 25.7087 30.8187 27.1377 30.8187C33.0972 30.8187 38.3763 27.9466 41.6456 23.5269C40.5073 32.7243 32.5907 39.8493 22.9876 39.8493Z" fill="black"/>
</svg>
