<svg width="50" height="50" viewBox="0 0 50 50" fill="none" xmlns="http://www.w3.org/2000/svg">
<path fill-rule="evenodd" clip-rule="evenodd" d="M9.00023 25C9.00023 23.6193 9.96187 22.5 11.1482 22.5H39.0717C40.258 22.5 41.2197 23.6193 41.2197 25C41.2197 26.3807 40.258 27.5 39.0717 27.5L11.1482 27.5C9.96187 27.5 9.00023 26.3807 9.00023 25Z" fill="black"/>
<path fill-rule="evenodd" clip-rule="evenodd" d="M22.5042 5.74745C23.3358 4.76281 24.6957 4.74924 25.5418 5.71714L40.394 22.7096C41.495 23.9693 41.495 26.0307 40.394 27.2904L25.5418 44.2829C24.6957 45.2508 23.3358 45.2372 22.5042 44.2526C21.6726 43.2679 21.6842 41.6851 22.5302 40.7171L36.2677 25L22.5302 9.28286C21.6842 8.31495 21.6726 6.7321 22.5042 5.74745Z" fill="black"/>
</svg>
