<svg width="50" height="50" viewBox="0 0 50 50" fill="none" xmlns="http://www.w3.org/2000/svg">
<path d="M9.44614 33.017C9.21566 32.5651 9.00442 32.1036 8.81301 31.6338C8.79006 31.5764 8.75599 31.5243 8.71278 31.4801C8.66956 31.4359 8.61805 31.4008 8.5612 31.3766C8.50435 31.3525 8.44329 31.3398 8.38153 31.3393C8.31976 31.3388 8.2585 31.3505 8.20128 31.3738C8.14407 31.3971 8.09201 31.4314 8.04811 31.4749C8.0042 31.5184 7.96933 31.57 7.94546 31.6271C7.92161 31.684 7.90926 31.7451 7.9091 31.8069C7.90895 31.8686 7.921 31.9298 7.94458 31.987C8.14586 32.4817 8.36825 32.9675 8.61114 33.4432C8.63913 33.498 8.67764 33.5468 8.72448 33.5867C8.77132 33.6267 8.82557 33.657 8.88413 33.676C8.94268 33.695 9.00441 33.7022 9.06577 33.6973C9.12713 33.6924 9.18694 33.6756 9.24177 33.6476C9.2966 33.6196 9.34537 33.5811 9.38532 33.5342C9.42526 33.4874 9.45558 33.4331 9.47456 33.3746C9.49353 33.316 9.5008 33.2543 9.49592 33.193C9.49105 33.1316 9.47413 33.0718 9.44614 33.017ZM8.29989 30.2017C8.14919 29.717 8.01917 29.2261 7.9102 28.7304C7.88216 28.6104 7.808 28.5063 7.70378 28.4405C7.59954 28.3748 7.47363 28.3528 7.35327 28.3792C7.23292 28.4056 7.1278 28.4784 7.06067 28.5817C6.99354 28.685 6.9698 28.8106 6.99458 28.9313C7.10833 29.4501 7.24614 29.971 7.40426 30.4801C7.44119 30.5988 7.52378 30.6981 7.63387 30.7559C7.74396 30.8138 7.87253 30.8256 7.9913 30.7886C8.11007 30.7518 8.2093 30.6691 8.26717 30.5591C8.32505 30.449 8.33681 30.3204 8.29989 30.2017ZM7.24333 27.7578C7.36657 27.7417 7.4783 27.6771 7.55396 27.5784C7.62961 27.4798 7.663 27.3551 7.64677 27.2319C7.58052 26.7319 7.53489 26.2225 7.51052 25.7154C7.50838 25.6537 7.4939 25.593 7.46794 25.537C7.44199 25.4809 7.40507 25.4306 7.35938 25.3891C7.31368 25.3475 7.26013 25.3155 7.20188 25.295C7.14363 25.2744 7.08186 25.2658 7.0202 25.2694C6.95871 25.2724 6.89839 25.2874 6.84269 25.3137C6.787 25.3398 6.73701 25.3768 6.6956 25.4224C6.6542 25.4679 6.62216 25.5212 6.60134 25.5791C6.58053 25.6371 6.57133 25.6985 6.57427 25.7601C6.59958 26.2935 6.6477 26.8298 6.71708 27.3538C6.72513 27.4149 6.74513 27.4738 6.77593 27.5271C6.80673 27.5804 6.84774 27.6271 6.89661 27.6645C6.94548 27.702 7.00126 27.7295 7.06075 27.7454C7.12024 27.7613 7.18228 27.7659 7.24333 27.7578ZM15.4377 39.7848C15.0168 39.5005 14.608 39.1988 14.2124 38.8804C14.1644 38.8418 14.1093 38.8131 14.0502 38.7958C13.9912 38.7785 13.9292 38.7731 13.868 38.7797C13.8068 38.7863 13.7475 38.805 13.6936 38.8345C13.6396 38.8641 13.5919 38.904 13.5533 38.9519C13.5148 38.9999 13.486 39.0551 13.4687 39.1141C13.4514 39.1731 13.446 39.2351 13.4526 39.2963C13.4593 39.3575 13.4779 39.4168 13.5075 39.4708C13.537 39.5248 13.5769 39.5725 13.6249 39.611C14.041 39.9458 14.4709 40.263 14.9137 40.5617C15.0166 40.6312 15.1428 40.6572 15.2648 40.6338C15.3868 40.6104 15.4946 40.5394 15.5643 40.4366C15.5989 40.3856 15.6231 40.3282 15.6354 40.2677C15.6478 40.2072 15.6481 40.145 15.6363 40.0845C15.6246 40.0238 15.601 39.9662 15.5669 39.9148C15.5328 39.8634 15.4889 39.8191 15.4377 39.7848ZM10.1943 34.3435C10.1624 34.2899 10.1202 34.2431 10.0701 34.2061C10.0199 34.169 9.9629 34.1423 9.90232 34.1275C9.84173 34.1127 9.77881 34.1102 9.71723 34.12C9.65566 34.1298 9.59666 34.1519 9.5437 34.1849C9.49074 34.2178 9.4449 34.261 9.40883 34.3118C9.37277 34.3627 9.34722 34.4203 9.33368 34.4811C9.32014 34.542 9.31889 34.605 9.32999 34.6664C9.34109 34.7277 9.36433 34.7863 9.39833 34.8385C9.68064 35.2917 9.98152 35.733 10.3002 36.1613C10.337 36.2107 10.3832 36.2524 10.436 36.2838C10.4889 36.3154 10.5475 36.3362 10.6084 36.3451C10.6693 36.354 10.7314 36.3508 10.7911 36.3357C10.8508 36.3206 10.9069 36.2939 10.9563 36.2571C11.0057 36.2203 11.0473 36.1742 11.0788 36.1212C11.1104 36.0684 11.1312 36.0098 11.1401 35.9489C11.149 35.8879 11.1458 35.8259 11.1307 35.7662C11.1156 35.7065 11.0889 35.6504 11.0521 35.601C10.7497 35.1933 10.4636 34.7738 10.1943 34.3435ZM12.0118 36.781C11.9293 36.6879 11.8133 36.6314 11.6892 36.6238C11.5651 36.6164 11.4431 36.6585 11.35 36.7409C11.257 36.8233 11.2005 36.9393 11.1929 37.0634C11.1854 37.1875 11.2275 37.3095 11.3099 37.4025C11.6643 37.8022 12.0351 38.1869 12.4215 38.5557C12.4656 38.6001 12.5182 38.6351 12.5761 38.6589C12.634 38.6826 12.6961 38.6945 12.7587 38.6938C12.8213 38.6932 12.8831 38.68 12.9405 38.6551C12.9979 38.6301 13.0498 38.5939 13.093 38.5487C13.1362 38.5034 13.1699 38.4499 13.1921 38.3914C13.2143 38.3329 13.2245 38.2705 13.2222 38.2079C13.2199 38.1454 13.2051 38.0839 13.1787 38.0271C13.1523 37.9705 13.1147 37.9196 13.0683 37.8776C12.7015 37.5265 12.349 37.1606 12.0118 36.781ZM25.4952 5.90601C22.4571 5.90898 19.4641 6.64121 16.7678 8.04115C14.0714 9.44108 11.7506 11.4678 10.0002 13.951C9.9286 14.0526 9.9003 14.1786 9.92154 14.3011C9.94279 14.4237 10.0118 14.5327 10.1135 14.6043C10.2151 14.6759 10.3411 14.7042 10.4636 14.683C10.5861 14.6617 10.6952 14.5926 10.7668 14.491C12.7324 11.6993 15.4515 9.52427 18.6066 8.21968C21.7619 6.91508 25.223 6.53475 28.5862 7.12309C31.9494 7.71143 35.0759 9.24416 37.6008 11.5424C40.1258 13.8406 41.945 16.8096 42.8462 20.1028C43.7473 23.396 43.6933 26.8776 42.6905 30.1412C41.6875 33.4048 39.7771 36.3159 37.182 38.5347C34.5871 40.7536 31.4145 42.1885 28.0346 42.6723C24.6548 43.156 21.2072 42.6685 18.0939 41.2666C17.6312 41.0578 17.1778 40.8292 16.7346 40.5817C16.6808 40.5511 16.6215 40.5315 16.5601 40.5239C16.4987 40.5165 16.4365 40.5211 16.3769 40.5378C16.3173 40.5544 16.2617 40.5826 16.2131 40.6209C16.1645 40.6591 16.1239 40.7066 16.0938 40.7606C16.0636 40.8146 16.0445 40.874 16.0373 40.9354C16.0303 40.9969 16.0354 41.0591 16.0525 41.1185C16.0695 41.178 16.0982 41.2335 16.1368 41.2818C16.1754 41.3301 16.2232 41.3703 16.2774 41.4001C16.7439 41.6605 17.2213 41.9011 17.7083 42.121C20.2844 43.282 23.0875 43.8521 25.9124 43.7895C28.7373 43.7268 31.5124 43.0331 34.0345 41.759C36.5565 40.4849 38.7616 38.6628 40.4882 36.4261C42.2148 34.1894 43.4192 31.5948 44.0132 28.8324C44.6072 26.0699 44.5757 23.2096 43.921 20.4609C43.2664 17.7122 42.0051 15.1447 40.2296 12.9466C38.4542 10.7485 36.2095 8.97536 33.66 7.75714C31.1105 6.53891 28.3208 5.90642 25.4952 5.90601Z" fill="black"/>
<path d="M10.1411 15.8159C9.83164 15.8154 9.53248 15.7049 9.29695 15.5042C9.06142 15.3036 8.90484 15.0258 8.85513 14.7204L8.46513 12.2988C8.44882 12.1776 8.48049 12.0549 8.55338 11.9568C8.62627 11.8586 8.7346 11.7928 8.85529 11.7734C8.97599 11.754 9.09948 11.7825 9.19945 11.8529C9.29942 11.9232 9.36795 12.0299 9.39044 12.15L9.78138 14.5712C9.79734 14.6668 9.85033 14.7522 9.92884 14.8089C10.0074 14.8656 10.1051 14.889 10.2008 14.8741L12.622 14.4841C12.7432 14.4678 12.8659 14.4994 12.964 14.5724C13.0622 14.6452 13.1279 14.7536 13.1473 14.8743C13.1667 14.995 13.1382 15.1184 13.0679 15.2184C12.9975 15.3184 12.8909 15.3869 12.7708 15.4094L10.3495 15.7994C10.2806 15.8105 10.2109 15.816 10.1411 15.8159ZM37.6013 16.8419L26.2117 10.8397C25.9957 10.7255 25.755 10.6658 25.5106 10.6658C25.2662 10.6658 25.0255 10.7255 24.8095 10.8397L13.4192 16.8419C13.1767 16.9692 12.9736 17.1604 12.8321 17.395C12.6906 17.6295 12.616 17.8983 12.6164 18.1722V31.5238C12.6159 31.7978 12.6905 32.0665 12.832 32.3011C12.9736 32.5358 13.1766 32.7271 13.4192 32.8544L24.8095 38.8566C25.0256 38.9704 25.2663 39.03 25.5106 39.03C25.7549 39.03 25.9955 38.9704 26.2117 38.8566L37.6013 32.8544C37.844 32.7271 38.0472 32.5358 38.1887 32.3012C38.3303 32.0666 38.4049 31.7978 38.4045 31.5238V18.1722C38.4049 17.8983 38.3302 17.6295 38.1887 17.395C38.0471 17.1604 37.844 16.9691 37.6013 16.8419ZM21.067 20.6875C20.8183 20.8124 20.6094 21.0041 20.4637 21.2411C20.318 21.4782 20.2412 21.7511 20.242 22.0294V27.3857C20.2431 27.3957 20.2406 27.4058 20.2348 27.4141C20.2291 27.4224 20.2206 27.4284 20.2107 27.431C20.202 27.4358 20.1917 27.4374 20.1819 27.4353C20.172 27.4331 20.1633 27.4275 20.1573 27.4194L19.1329 26.35C19.0159 26.229 18.87 26.1397 18.709 26.0904C18.548 26.0412 18.377 26.0338 18.2123 26.0688L17.5439 26.2128C17.5367 26.2143 17.5294 26.2142 17.5223 26.2125C17.5153 26.2108 17.5086 26.2075 17.503 26.203C17.4973 26.1984 17.4928 26.1925 17.4896 26.186C17.4865 26.1795 17.4848 26.1723 17.4848 26.1651V20.16C17.4844 20.0552 17.5133 19.9524 17.5681 19.8631C17.623 19.7738 17.7017 19.7017 17.7954 19.6547L29.5954 13.6825L32.198 15.0541L21.067 20.6875ZM25.2464 11.6688C25.3279 11.6259 25.4186 11.6035 25.5106 11.6035C25.6026 11.6035 25.6933 11.6259 25.7748 11.6688L28.5786 13.1463L17.3729 18.8181C17.2593 18.8761 17.1535 18.9484 17.0582 19.0331L14.1066 17.5391L25.2464 11.6688ZM25.0417 37.9188L13.8564 32.0247C13.7652 31.9769 13.6887 31.9051 13.6354 31.8169C13.582 31.7288 13.5539 31.6278 13.5539 31.5247V18.31L16.5852 19.8438C16.5616 19.9476 16.5493 20.0536 16.5482 20.16V26.1641C16.5483 26.3112 16.5813 26.4565 16.6446 26.5892C16.708 26.722 16.8004 26.8389 16.9148 26.9313C17.0293 27.0238 17.163 27.0895 17.3061 27.1236C17.4493 27.1577 17.5981 27.1593 17.742 27.1284L18.4105 26.9847C18.4186 26.9824 18.4273 26.9826 18.4354 26.9851C18.4436 26.9876 18.4508 26.9924 18.4564 26.9988L19.4813 28.0681C19.6175 28.2103 19.7932 28.3084 19.9856 28.3499C20.178 28.3915 20.3785 28.3744 20.5612 28.3011C20.7439 28.2277 20.9004 28.1013 21.0106 27.9383C21.1209 27.7751 21.1798 27.5828 21.1798 27.3859V22.1697L24.832 24.0178C24.8997 24.0516 24.9699 24.08 25.042 24.1028L25.0417 37.9188ZM25.2552 23.1816L21.7354 21.4004L33.2148 15.59L36.9145 17.5394L25.7667 23.1819C25.6873 23.2218 25.5998 23.2425 25.5109 23.2425C25.4221 23.2425 25.3345 23.2215 25.2552 23.1816ZM37.467 31.5235C37.4669 31.6265 37.4387 31.7275 37.3854 31.8156C37.3321 31.9038 37.2557 31.9756 37.1645 32.0235L25.9792 37.9194V24.1031C26.0517 24.0802 26.1223 24.0517 26.1905 24.0178L37.467 18.3104V31.5235Z" fill="black"/>
</svg>
