<svg width="50" height="50" viewBox="0 0 50 50" fill="none" xmlns="http://www.w3.org/2000/svg">
<g clip-path="url(#clip0_206_102)">
<path d="M13.5932 14.8447C13.162 14.8447 12.812 15.1947 12.812 15.626C12.812 16.0572 13.162 16.4072 13.5932 16.4072C14.0245 16.4072 14.3745 16.0572 14.3745 15.626C14.3745 15.1947 14.0245 14.8447 13.5932 14.8447Z" fill="black"/>
<path d="M41.791 21.5262L40.6606 19.2652C40.2609 18.4659 39.4578 17.9694 38.5643 17.9694H32.0302V12.5009C32.0302 11.2086 30.9788 10.1572 29.6865 10.1572H7.34368C6.05133 10.1572 5 11.2086 5 12.5009V32.8126C5 34.1048 6.05133 35.1562 7.34368 35.1562H9.68734C9.68734 36.3557 10.1409 37.4512 10.8847 38.2811H5.78125C5.34977 38.2811 5 38.6309 5 39.0623C5 39.4937 5.34977 39.8436 5.78125 39.8436H44.2172C44.6487 39.8436 44.9984 39.4937 44.9984 39.0623C44.9984 38.6309 44.6487 38.2811 44.2172 38.2811H42.2386C42.9825 37.4511 43.4359 36.3557 43.4359 35.1562C43.4359 35.1117 43.4338 35.0674 43.4326 35.0229C44.3436 34.7013 44.9983 33.8322 44.9983 32.8126V28.4939C44.9983 27.5823 45.1789 28.4334 41.791 21.5262ZM40.6094 22.6567L42.9531 27.344H35.155V22.6567H40.6094ZM6.56243 28.9064H8.12484V30.4688H6.56243V28.9064ZM14.3746 38.2811C12.6516 38.2811 11.2498 36.8792 11.2498 35.1562C11.2498 34.9434 11.2709 34.7339 11.3131 34.5302C11.6069 33.0823 12.8945 32.0313 14.3746 32.0313C15.8548 32.0313 17.1424 33.0822 17.4362 34.5302L17.4368 34.5336C17.4784 34.7338 17.4994 34.9434 17.4994 35.1562C17.4994 36.8792 16.0977 38.2811 14.3746 38.2811ZM14.3746 30.4688C12.373 30.4688 10.6065 31.7512 9.95523 33.5937H7.34368C6.91289 33.5937 6.56243 33.2432 6.56243 32.8125V32.0312H8.90609C9.33758 32.0312 9.68734 31.6813 9.68734 31.25V28.1251C9.68734 27.6937 9.33758 27.3438 8.90609 27.3438H6.56243V12.5009C6.56243 12.0701 6.91289 11.7196 7.34368 11.7196H29.6865C30.1173 11.7196 30.4678 12.0701 30.4678 12.5009V33.5938H18.7936C18.1412 31.7502 16.3754 30.4688 14.3746 30.4688ZM17.8645 38.2811C18.6084 37.4511 19.0619 36.3557 19.0619 35.1562H34.0613C34.0613 36.3557 34.5148 37.4512 35.2586 38.2811H17.8645ZM38.7486 38.2811C37.0256 38.2811 35.6238 36.8792 35.6238 35.1562C35.6238 34.9434 35.6448 34.7339 35.687 34.5302C35.9808 33.0823 37.2684 32.0313 38.7486 32.0313C40.2288 32.0313 41.5164 33.0822 41.8102 34.5302L41.8108 34.5336C41.8524 34.7338 41.8734 34.9434 41.8734 35.1562C41.8735 36.8792 40.4717 38.2811 38.7486 38.2811ZM43.4359 32.8126C43.4359 33.0724 43.3079 33.3023 43.1122 33.4445C42.4192 31.6813 40.6949 30.4689 38.7486 30.4689C36.7469 30.4689 34.9805 31.7512 34.3293 33.5938H32.0301V19.5318H38.5643C38.7094 19.5314 38.8519 19.5717 38.9754 19.648C39.0989 19.7244 39.1986 19.8338 39.2631 19.9639L39.8282 21.0942H34.3738C33.9423 21.0942 33.5926 21.4441 33.5926 21.8755V28.1252C33.5926 28.5567 33.9423 28.9065 34.3738 28.9065H43.4359V32.8126Z" fill="black"/>
<path d="M26.5615 14.8447H16.7181C16.2867 14.8447 15.9368 15.1946 15.9368 15.626C15.9368 16.0574 16.2867 16.4072 16.7181 16.4072H26.5615C26.993 16.4072 27.3427 16.0574 27.3427 15.626C27.3427 15.1946 26.9929 14.8447 26.5615 14.8447ZM26.5615 17.9696H19.843C19.4115 17.9696 19.0617 18.3194 19.0617 18.7508C19.0617 19.1822 19.4115 19.5321 19.843 19.5321H26.5615C26.993 19.5321 27.3427 19.1822 27.3427 18.7508C27.3427 18.3194 26.9929 17.9696 26.5615 17.9696ZM38.7484 33.5939C37.8868 33.5939 37.186 34.2949 37.186 35.1563C37.186 36.0179 37.8869 36.7187 38.7484 36.7187C39.61 36.7187 40.3108 36.0178 40.3108 35.1563C40.3108 34.2948 39.61 33.5939 38.7484 33.5939ZM14.3744 33.5939C13.5129 33.5939 12.812 34.2949 12.812 35.1563C12.812 36.0179 13.513 36.7187 14.3744 36.7187C15.236 36.7187 15.9368 36.0178 15.9368 35.1563C15.9368 34.2948 15.236 33.5939 14.3744 33.5939Z" fill="black"/>
</g>
<defs>
<clipPath id="clip0_206_102">
<rect width="40" height="30" fill="white" transform="translate(5 10)"/>
</clipPath>
</defs>
</svg>
