<svg width="50" height="50" viewBox="0 0 50 50" fill="none" xmlns="http://www.w3.org/2000/svg">
<path d="M41.9994 32.9247H41.7504L39.0259 26.5701C39.4879 26.7725 39.9857 26.8803 40.49 26.887C40.6901 26.887 40.8821 26.8075 41.0236 26.666C41.1652 26.5244 41.2447 26.3325 41.2447 26.1323V20.0947C41.2447 19.8945 41.1652 19.7025 41.0236 19.561C40.8821 19.4195 40.6901 19.34 40.49 19.34C39.704 19.3442 38.9391 19.5939 38.3019 20.0538C37.6646 20.5139 37.1869 21.1614 36.9354 21.906C36.7133 21.596 36.4299 21.3348 36.1027 21.1387C35.7756 20.9427 35.4116 20.816 35.0335 20.7664C34.5541 20.7045 34.0673 20.7352 33.5995 20.8569H32.943C31.6675 20.8569 31.1015 20.1022 30.211 18.8721L29.7656 18.2457C30.2224 18.2223 30.6649 18.0792 31.0487 17.8305C31.3399 17.6192 31.5865 17.3524 31.7743 17.0454C31.962 16.7385 32.0874 16.3974 32.1429 16.042C32.3883 15.9006 32.6028 15.7117 32.7739 15.4861C32.9449 15.2606 33.0692 15.0031 33.1391 14.7287C33.1711 14.5124 33.15 14.2915 33.0777 14.0851C33.0053 13.8787 32.884 13.693 32.7241 13.5438C32.4159 13.0162 32.2471 12.4189 32.2336 11.808C32.4283 11.7964 32.6111 11.7097 32.7434 11.5661C32.8757 11.4226 32.9472 11.2334 32.943 11.0382C32.9431 10.2383 32.7841 9.44637 32.4755 8.70838C32.167 7.97039 31.7148 7.30108 31.1453 6.73934C30.5759 6.17759 29.9004 5.73461 29.1583 5.43612C28.4161 5.13763 27.6221 4.98957 26.8223 5.00057C25.2527 5.03147 23.756 5.66875 22.6459 6.77883C21.5359 7.88892 20.8985 9.38562 20.8677 10.9552C20.8535 11.7554 20.9998 12.5503 21.298 13.2931C21.5961 14.0358 22.0401 14.7113 22.6034 15.2797C22.7705 15.4457 22.9468 15.6019 23.1318 15.7476C20.2187 16.457 18.6865 19.189 17.9016 21.5588C17.6784 21.3338 17.4126 21.1552 17.1198 21.0335C16.827 20.9117 16.5131 20.8492 16.1961 20.8494H8.18104C7.77856 20.8487 7.38236 20.9493 7.02891 21.1418C6.67547 21.3344 6.37613 21.6127 6.15844 21.9513C6.04934 22.1194 6.01151 22.324 6.05327 22.52C6.09502 22.716 6.21293 22.8875 6.38107 22.9966C6.5492 23.1056 6.75379 23.1435 6.94982 23.1017C7.14583 23.0599 7.31725 22.942 7.42633 22.774C7.50765 22.6479 7.61946 22.5445 7.7514 22.4733C7.88333 22.402 8.03111 22.3653 8.18104 22.3664H9.54706V24.6305C9.54706 24.8306 9.62657 25.0226 9.76811 25.1641C9.90965 25.3057 10.1016 25.3852 10.3018 25.3852H14.0753C14.2754 25.3852 14.4674 25.3057 14.6089 25.1641C14.7505 25.0226 14.83 24.8306 14.83 24.6305V22.3588H16.1961C16.314 22.3588 16.4308 22.3821 16.5398 22.4272C16.6487 22.4723 16.7477 22.5385 16.8311 22.6219C16.9144 22.7052 16.9806 22.8043 17.0257 22.9133C17.0709 23.0222 17.0941 23.139 17.0941 23.257V29.0153C17.0921 29.2522 16.9966 29.4787 16.8285 29.6455C16.6602 29.8123 16.4329 29.9058 16.1961 29.9058H8.18104C7.9649 29.9119 7.75409 29.8383 7.58855 29.6992C7.42302 29.5602 7.31427 29.3651 7.28294 29.1511H8.79236C8.99252 29.1511 9.18447 29.0717 9.32602 28.9302C9.46755 28.7886 9.54706 28.5967 9.54706 28.3964C9.54706 28.1963 9.46755 28.0043 9.32602 27.8628C9.18447 27.7213 8.99252 27.6417 8.79236 27.6417H7.28294V26.1323H8.03765C8.23781 26.1323 8.42977 26.0528 8.57131 25.9113C8.71285 25.7697 8.79236 25.5778 8.79236 25.3776C8.79236 25.1775 8.71285 24.9855 8.57131 24.844C8.42977 24.7025 8.23781 24.6229 8.03765 24.6229H4.26412C4.06395 24.6229 3.872 24.7025 3.73046 24.844C3.58892 24.9855 3.50941 25.1775 3.50941 25.3776C3.50941 25.5778 3.58892 25.7697 3.73046 25.9113C3.872 26.0528 4.06395 26.1323 4.26412 26.1323H5.77353V27.6417H2.75471C2.55454 27.6417 2.36259 27.7213 2.22105 27.8628C2.07951 28.0043 2 28.1963 2 28.3964C2 28.5967 2.07951 28.7886 2.22105 28.9302C2.36259 29.0717 2.55454 29.1511 2.75471 29.1511H5.77353C5.80819 29.7626 6.07524 30.3376 6.52 30.7585C6.96476 31.1793 7.5536 31.4144 8.16596 31.4153H11.9395C11.5902 31.7578 11.2928 32.1493 11.0565 32.5776C10.0486 34.554 9.53095 36.7439 9.54706 38.9623C9.54706 39.1626 9.62657 39.3544 9.76811 39.496C9.90965 39.6375 10.1016 39.717 10.3018 39.717H12.6187C12.8119 41.1675 13.5252 42.4984 14.626 43.4625C15.7269 44.4264 17.1403 44.9577 18.6035 44.9577C20.0667 44.9577 21.4802 44.4264 22.581 43.4625C23.6819 42.4984 24.3952 41.1675 24.5884 39.717H36.0146C36.1599 40.8701 36.6348 41.9568 37.3825 42.8465C38.1302 43.7362 39.1187 44.3913 40.2294 44.7331C41.3402 45.0748 42.526 45.0887 43.6445 44.7731C44.763 44.4575 45.7666 43.8258 46.5349 42.9539C47.3032 42.0818 47.8036 41.0067 47.9758 39.8573C48.1482 38.7081 47.985 37.5334 47.5062 36.4745C47.0273 35.4156 46.253 34.5174 45.2761 33.8877C44.2993 33.2581 43.1616 32.9237 41.9994 32.9247ZM13.3206 23.8682H11.0565V22.3588H13.3206V23.8682ZM39.7353 20.9777V25.2494C39.293 25.0937 38.91 24.8047 38.6391 24.4221C38.3681 24.0396 38.2225 23.5823 38.2225 23.1135C38.2225 22.6447 38.3681 22.1874 38.6391 21.8049C38.91 21.4223 39.293 21.1332 39.7353 20.9777ZM34.8146 22.2532C35.1105 22.2974 35.3854 22.4322 35.6016 22.6389C35.8178 22.8457 35.9647 23.1143 36.0222 23.4079L36.2183 23.8682C35.1676 24.4084 33.9953 24.6683 32.8146 24.6229C32.7107 24.1746 32.7651 23.7041 32.9688 23.2914C33.1724 22.8787 33.5126 22.5491 33.9316 22.3588C34.2162 22.2665 34.5167 22.2331 34.8146 22.2608V22.2532ZM31.0939 14.8872C30.9683 14.9505 30.8629 15.0476 30.7896 15.1677C30.7162 15.2877 30.6779 15.4258 30.6788 15.5664C30.6732 15.7564 30.6281 15.9432 30.5462 16.1148C30.4643 16.2862 30.3475 16.4388 30.2034 16.5626C29.7732 16.8495 28.9731 16.7815 27.9393 16.374C27.8841 16.3679 27.8284 16.3679 27.7732 16.374L27.66 16.2759V13.3854C27.66 13.1763 27.7012 12.9691 27.7812 12.776C27.8612 12.5828 27.9786 12.4072 28.1264 12.2593C28.2743 12.1115 28.4498 11.9942 28.6431 11.9141C28.8363 11.8341 29.0433 11.7929 29.2524 11.7929H30.6788C30.7026 12.7699 31.0094 13.7189 31.5619 14.525C31.4253 14.671 31.2676 14.7957 31.0939 14.8948V14.8872ZM22.3771 10.9703C22.4148 9.79933 22.8969 8.68663 23.7253 7.8582C24.5537 7.02977 25.6664 6.54772 26.8374 6.50998H26.9053C27.9759 6.50928 29.0122 6.88795 29.8301 7.57877C30.648 8.26959 31.1948 9.22787 31.3732 10.2835H29.2524C28.4304 10.2855 27.6426 10.613 27.0613 11.1942C26.48 11.7755 26.1526 12.5633 26.1506 13.3854V15.506C25.0847 15.326 24.1182 14.7706 23.4262 13.94C22.7341 13.1095 22.3619 12.0588 22.3771 10.9778V10.9703ZM24.6412 17.0758C27.1091 17.0758 28.0147 18.3665 28.9733 19.7249C29.6676 20.7212 30.4827 21.8079 31.8411 22.1928C31.4138 22.8833 31.2206 23.6931 31.2902 24.5021C30.3535 24.2975 29.47 23.899 28.6965 23.3323C27.9231 22.7656 27.277 22.0432 26.7997 21.2116C26.7585 21.112 26.6965 21.0222 26.6178 20.9484C26.539 20.8746 26.4453 20.8186 26.3431 20.7842C26.2408 20.7497 26.1325 20.7375 26.0251 20.7485C25.9178 20.7595 25.814 20.7933 25.7209 20.8478C25.6277 20.9023 25.5474 20.9761 25.4853 21.0642C25.423 21.1524 25.3804 21.2529 25.3603 21.3588C25.3402 21.4649 25.3432 21.574 25.3689 21.6787C25.3945 21.7836 25.4423 21.8816 25.5091 21.9663C25.7826 22.4255 26.0958 22.8598 26.4449 23.2644L26.377 23.3098C25.6735 24.1189 25.1787 25.088 24.9355 26.1323H18.6035V25.3776C18.6563 24.9173 19.5168 17.0758 24.6412 17.0758ZM18.6035 29.0078V27.6417H25.3959C25.5468 27.6417 29.1694 27.6871 29.1694 31.4153V35.1888H26.1506V33.6794C26.1697 33.1787 26.0851 32.6795 25.9022 32.2131C25.7193 31.7467 25.4421 31.3229 25.0878 30.9687C24.7335 30.6144 24.3099 30.3372 23.8435 30.1543C23.3769 29.9714 22.8778 29.8869 22.3771 29.9058H18.43C18.5452 29.6205 18.6042 29.3156 18.6035 29.0078ZM18.6035 43.4906C17.5342 43.4895 16.4998 43.1101 15.6834 42.4194C14.867 41.7287 14.3214 40.7714 14.1433 39.717H15.6903C15.8642 40.3566 16.2436 40.9212 16.7701 41.3236C17.2966 41.7261 17.9408 41.9442 18.6035 41.9442C19.2663 41.9442 19.9105 41.7261 20.437 41.3236C20.9635 40.9212 21.3429 40.3566 21.5168 39.717H23.0638C22.8857 40.7714 22.3401 41.7287 21.5237 42.4194C20.7073 43.1101 19.6729 43.4895 18.6035 43.4906ZM17.3054 39.717H19.9016C19.768 39.9423 19.578 40.1289 19.3505 40.2584C19.1229 40.3881 18.8655 40.4563 18.6035 40.4563C18.3416 40.4563 18.0842 40.3881 17.8566 40.2584C17.6291 40.1289 17.439 39.9423 17.3054 39.717ZM11.0565 38.2076C11.1528 36.4705 11.6212 34.7744 12.43 33.2341C12.7304 32.6756 13.1788 32.2105 13.7259 31.8896C14.2729 31.5688 14.8977 31.4047 15.5319 31.4153H22.3771C22.6787 31.3989 22.9804 31.4463 23.2625 31.5543C23.5445 31.6624 23.8007 31.8286 24.0144 32.0422C24.228 32.2557 24.3942 32.5119 24.5021 32.794C24.6101 33.0761 24.6575 33.3778 24.6412 33.6794V35.9435C24.6412 36.76 24.906 37.5545 25.3959 38.2076H11.0565ZM28.4147 38.2076C27.9476 38.2063 27.4923 38.0606 27.1112 37.7904C26.7302 37.5201 26.4422 37.1386 26.2865 36.6982H29.9241C30.1212 36.6856 30.3187 36.7141 30.504 36.7822C30.6894 36.8501 30.8584 36.9561 31.0005 37.0932C31.1426 37.2303 31.2545 37.3955 31.329 37.5783C31.4036 37.7612 31.4393 37.9574 31.4335 38.1548C31.1834 38.1882 30.9312 38.2059 30.6788 38.2076H28.4147ZM33.2524 37.3247C33.1433 37.448 33.019 37.5571 32.8826 37.6492C32.7997 37.0786 32.5441 36.547 32.1502 36.1261C31.7562 35.7052 31.2426 35.4149 30.6788 35.2945V31.4153C30.7469 30.1839 30.3529 28.9713 29.5741 28.0152C28.7951 27.0589 27.6873 26.4279 26.4675 26.2456C26.6611 25.5686 26.9925 24.9391 27.4411 24.3965C27.4607 24.3701 27.4783 24.3423 27.4939 24.3136C28.6654 25.2637 30.075 25.8746 31.5694 26.0795L33.6977 35.3323C33.8172 36.0291 33.6572 36.745 33.2524 37.3247ZM35.2071 35.0228L33.1317 26.1323C34.4087 26.1441 35.6704 25.8545 36.8146 25.287L40.3768 33.5888L37.0863 38.2076H34.4524C34.7836 37.7536 35.021 37.2381 35.1505 36.6913C35.2802 36.1444 35.2994 35.5772 35.2071 35.0228ZM41.9994 38.2076H40.7013C40.8674 37.9199 41.124 37.695 41.4309 37.5678C41.7378 37.4407 42.0783 37.4183 42.3992 37.5044C42.7201 37.5903 43.0038 37.7798 43.206 38.0435C43.4083 38.3071 43.518 38.63 43.518 38.9623C43.518 39.2946 43.4083 39.6176 43.206 39.8813C43.0038 40.1448 42.7201 40.3343 42.3992 40.4204C42.0783 40.5063 41.7378 40.484 41.4309 40.3569C41.124 40.2297 40.8674 40.0049 40.7013 39.717H41.9994C42.1996 39.717 42.3916 39.6375 42.5331 39.496C42.6747 39.3544 42.7541 39.1626 42.7541 38.9623C42.7541 38.7622 42.6747 38.5702 42.5331 38.4287C42.3916 38.2872 42.1996 38.2076 41.9994 38.2076ZM38.9353 38.2076L39.1995 37.8379C39.1538 37.9585 39.1161 38.0821 39.0862 38.2076H38.9353ZM41.9994 43.4906C40.9301 43.4895 39.8957 43.1101 39.0793 42.4194C38.2629 41.7287 37.7173 40.7714 37.5391 39.717H39.0862C39.2515 40.3536 39.6202 40.9188 40.1362 41.3268C40.6522 41.7346 41.2872 41.9628 41.9448 41.9765C42.6023 41.9904 43.2465 41.7891 43.7791 41.4033C44.3117 41.0174 44.7039 40.4682 44.8958 39.8391C45.0876 39.21 45.0688 38.5355 44.8421 37.918C44.6154 37.3006 44.1933 36.7742 43.64 36.4186C43.0866 36.0632 42.4323 35.898 41.7766 35.9485C41.1208 35.9989 40.4995 36.2623 40.007 36.6982L41.6146 34.4341H41.9994C43.2004 34.4341 44.3521 34.9112 45.2014 35.7604C46.0506 36.6096 46.5277 37.7614 46.5277 38.9623C46.5277 40.1633 46.0506 41.3151 45.2014 42.1643C44.3521 43.0135 43.2004 43.4906 41.9994 43.4906Z" fill="black"/>
</svg>
