<svg width="50" height="50" viewBox="0 0 50 50" fill="none" xmlns="http://www.w3.org/2000/svg">
<path fill-rule="evenodd" clip-rule="evenodd" d="M41.2195 25C41.2195 23.6193 40.2579 22.5 39.0715 22.5H11.148C9.96168 22.5 9 23.6193 9 25C9 26.3807 9.96168 27.5 11.148 27.5L39.0715 27.5C40.2579 27.5 41.2195 26.3807 41.2195 25Z" fill="black"/>
<path fill-rule="evenodd" clip-rule="evenodd" d="M27.7156 5.74745C26.8839 4.76281 25.524 4.74924 24.678 5.71714L9.82575 22.7096C8.72475 23.9693 8.72475 26.0307 9.82575 27.2904L24.678 44.2829C25.524 45.2508 26.8839 45.2372 27.7156 44.2526C28.5471 43.2679 28.5355 41.6851 27.6895 40.7171L13.952 25L27.6895 9.28286C28.5355 8.31495 28.5471 6.7321 27.7156 5.74745Z" fill="black"/>
</svg>
