<svg width="50" height="50" viewBox="0 0 50 50" fill="none" xmlns="http://www.w3.org/2000/svg">
<path d="M10.554 32.3755L12.8389 34.6602V40.7694C12.8399 41.6108 13.1745 42.4172 13.7695 43.0121C14.3644 43.6071 15.171 43.9417 16.0123 43.9426H41.4055C42.2469 43.9417 43.0535 43.6071 43.6482 43.0121C44.2432 42.4172 44.5779 41.6108 44.5789 40.7694V24.9031C44.5764 24.102 44.2707 23.3317 43.723 22.7471C43.1755 22.1625 42.4267 21.8069 41.6276 21.752C41.9476 21.1534 42.0678 20.4681 41.9702 19.7965C41.8729 19.1248 41.5632 18.5019 41.0862 18.019L33.0041 9.9322L33.0002 9.92523H32.9946L29.865 6.79193C29.2701 6.1982 28.4638 5.86475 27.6233 5.86475C26.7827 5.86475 25.9766 6.1982 25.3815 6.79193L7.425 24.7546C6.83303 25.3526 6.50098 26.1601 6.50098 27.0015C6.50098 27.8431 6.83303 28.6505 7.425 29.2485L10.554 32.3755ZM29.8606 8.58229L31.6535 10.3765L20.3059 21.7298H16.7162L29.8606 8.58229ZM12.8446 29.1908L11.004 31.0312L9.21037 29.2377L12.8446 25.6012V29.1908ZM11.9014 31.9286L12.8446 30.9855V32.8718L11.9014 31.9286ZM43.3095 24.9031V40.7694C43.3095 41.2743 43.1089 41.7586 42.7518 42.1157C42.3947 42.4728 41.9104 42.6734 41.4055 42.6734H16.018C15.513 42.6734 15.0287 42.4728 14.6716 42.1157C14.3146 41.7586 14.114 41.2743 14.114 40.7694V24.9031C14.114 24.3981 14.3146 23.9138 14.6716 23.5568C15.0287 23.1997 15.513 22.9991 16.018 22.9991H41.4055C41.9104 22.9991 42.3947 23.1997 42.7518 23.5568C43.1089 23.9138 43.3095 24.3981 43.3095 24.9031ZM40.1887 21.6111L40.0727 21.7298H22.1002L32.551 11.2745L40.1869 18.9145C40.543 19.2727 40.743 19.7573 40.7433 20.2624C40.7436 20.7675 40.5444 21.2523 40.1887 21.6111ZM8.3237 25.65L26.279 7.68933C26.6405 7.34378 27.1213 7.15061 27.6215 7.1499C28.1218 7.1492 28.603 7.341 28.9656 7.68553L14.543 22.1106C13.9819 22.4078 13.523 22.8666 13.2254 23.4275L8.31418 28.3391C7.96344 27.9788 7.76797 27.4954 7.76975 26.9926C7.77154 26.4898 7.97041 26.0078 8.3237 25.65Z" fill="black"/>
<path d="M16.1453 30.0963H20.0908C20.4396 30.0963 20.7742 29.9595 21.0209 29.716C21.2675 29.4726 21.4061 29.1424 21.4061 28.7981V26.202C21.4061 25.8577 21.2675 25.5275 21.0209 25.284C20.7742 25.0406 20.4396 24.9038 20.0908 24.9038H16.1453C15.7965 24.9038 15.4619 25.0406 15.2153 25.284C14.9686 25.5275 14.8301 25.8577 14.8301 26.202V28.7981C14.8301 29.1424 14.9686 29.4726 15.2153 29.716C15.4619 29.9595 15.7965 30.0963 16.1453 30.0963ZM16.1453 26.202H20.0908V28.7981H16.1453V26.202ZM15.4877 33.9906C15.6621 33.9906 15.8293 33.9223 15.9527 33.8004C16.076 33.6787 16.1453 33.5137 16.1453 33.3415V32.0433C16.1453 31.8712 16.076 31.7061 15.9527 31.5844C15.8293 31.4627 15.6621 31.3944 15.4877 31.3944C15.3133 31.3944 15.146 31.4627 15.0227 31.5844C14.8994 31.7061 14.8301 31.8712 14.8301 32.0433V33.3415C14.8301 33.5137 14.8994 33.6787 15.0227 33.8004C15.146 33.9223 15.3133 33.9906 15.4877 33.9906ZM18.1181 31.3944C17.9437 31.3944 17.7764 31.4627 17.6531 31.5844C17.5297 31.7061 17.4605 31.8712 17.4605 32.0433V33.3415C17.4605 33.5137 17.5297 33.6787 17.6531 33.8004C17.7764 33.9223 17.9437 33.9906 18.1181 33.9906C18.2925 33.9906 18.4597 33.9223 18.583 33.8004C18.7064 33.6787 18.7757 33.5137 18.7757 33.3415V32.0433C18.7757 31.8712 18.7064 31.7061 18.583 31.5844C18.4597 31.4627 18.2925 31.3944 18.1181 31.3944ZM20.0908 32.0433V33.3415C20.0908 33.5137 20.1601 33.6787 20.2834 33.8004C20.4067 33.9223 20.5741 33.9906 20.7484 33.9906C20.9229 33.9906 21.0901 33.9223 21.2135 33.8004C21.3367 33.6787 21.4061 33.5137 21.4061 33.3415V32.0433C21.4061 31.8712 21.3367 31.7061 21.2135 31.5844C21.0901 31.4627 20.9229 31.3944 20.7484 31.3944C20.5741 31.3944 20.4067 31.4627 20.2834 31.5844C20.1601 31.7061 20.0908 31.8712 20.0908 32.0433ZM23.3789 31.3944C23.2044 31.3944 23.0372 31.4627 22.9138 31.5844C22.7906 31.7061 22.7212 31.8712 22.7212 32.0433V33.3415C22.7212 33.5137 22.7906 33.6787 22.9138 33.8004C23.0372 33.9223 23.2044 33.9906 23.3789 33.9906C23.5532 33.9906 23.7206 33.9223 23.8438 33.8004C23.9672 33.6787 24.0364 33.5137 24.0364 33.3415V32.0433C24.0364 31.8712 23.9672 31.7061 23.8438 31.5844C23.7206 31.4627 23.5532 31.3944 23.3789 31.3944ZM26.0092 33.9906C26.1836 33.9906 26.3509 33.9223 26.4742 33.8004C26.5975 33.6787 26.6669 33.5137 26.6669 33.3415V32.0433C26.6669 31.8712 26.5975 31.7061 26.4742 31.5844C26.3509 31.4627 26.1836 31.3944 26.0092 31.3944C25.8349 31.3944 25.6675 31.4627 25.5442 31.5844C25.4209 31.7061 25.3516 31.8712 25.3516 32.0433V33.3415C25.3516 33.5137 25.4209 33.6787 25.5442 33.8004C25.6675 33.9223 25.8349 33.9906 26.0092 33.9906ZM31.2699 31.3944C31.0956 31.3944 30.9282 31.4627 30.805 31.5844C30.6816 31.7061 30.6124 31.8712 30.6124 32.0433V33.3415C30.6124 33.5137 30.6816 33.6787 30.805 33.8004C30.9282 33.9223 31.0956 33.9906 31.2699 33.9906C31.4444 33.9906 31.6116 33.9223 31.735 33.8004C31.8582 33.6787 31.9276 33.5137 31.9276 33.3415V32.0433C31.9276 31.8712 31.8582 31.7061 31.735 31.5844C31.6116 31.4627 31.4444 31.3944 31.2699 31.3944ZM33.9004 31.3944C33.7259 31.3944 33.5587 31.4627 33.4353 31.5844C33.3121 31.7061 33.2427 31.8712 33.2427 32.0433V33.3415C33.2427 33.5137 33.3121 33.6787 33.4353 33.8004C33.5587 33.9223 33.7259 33.9906 33.9004 33.9906C34.0747 33.9906 34.2421 33.9223 34.3653 33.8004C34.4887 33.6787 34.5579 33.5137 34.5579 33.3415V32.0433C34.5579 31.8712 34.4887 31.7061 34.3653 31.5844C34.2421 31.4627 34.0747 31.3944 33.9004 31.3944ZM36.5307 31.3944C36.3564 31.3944 36.189 31.4627 36.0658 31.5844C35.9424 31.7061 35.8732 31.8712 35.8732 32.0433V33.3415C35.8732 33.5137 35.9424 33.6787 36.0658 33.8004C36.189 33.9223 36.3564 33.9906 36.5307 33.9906C36.7052 33.9906 36.8724 33.9223 36.9958 33.8004C37.119 33.6787 37.1884 33.5137 37.1884 33.3415V32.0433C37.1884 31.8712 37.119 31.7061 36.9958 31.5844C36.8724 31.4627 36.7052 31.3944 36.5307 31.3944ZM39.1612 31.3944C38.9867 31.3944 38.8195 31.4627 38.6961 31.5844C38.5729 31.7061 38.5035 31.8712 38.5035 32.0433V33.3415C38.5035 33.5137 38.5729 33.6787 38.6961 33.8004C38.8195 33.9223 38.9867 33.9906 39.1612 33.9906C39.3355 33.9906 39.5029 33.9223 39.6261 33.8004C39.7495 33.6787 39.8187 33.5137 39.8187 33.3415V32.0433C39.8187 31.8712 39.7495 31.7061 39.6261 31.5844C39.5029 31.4627 39.3355 31.3944 39.1612 31.3944ZM18.1181 35.2887H15.4877C15.3133 35.2887 15.146 35.357 15.0227 35.4787C14.8994 35.6006 14.8301 35.7657 14.8301 35.9378C14.8301 36.1098 14.8994 36.275 15.0227 36.3967C15.146 36.5184 15.3133 36.5867 15.4877 36.5867H18.1181C18.2925 36.5867 18.4597 36.5184 18.583 36.3967C18.7064 36.275 18.7757 36.1098 18.7757 35.9378C18.7757 35.7657 18.7064 35.6006 18.583 35.4787C18.4597 35.357 18.2925 35.2887 18.1181 35.2887ZM23.3789 35.2887H20.7484C20.5741 35.2887 20.4067 35.357 20.2834 35.4787C20.1601 35.6006 20.0908 35.7657 20.0908 35.9378C20.0908 36.1098 20.1601 36.275 20.2834 36.3967C20.4067 36.5184 20.5741 36.5867 20.7484 36.5867H23.3789C23.5532 36.5867 23.7206 36.5184 23.8438 36.3967C23.9672 36.275 24.0364 36.1098 24.0364 35.9378C24.0364 35.7657 23.9672 35.6006 23.8438 35.4787C23.7206 35.357 23.5532 35.2887 23.3789 35.2887ZM18.1181 37.8849H15.4877C15.3133 37.8849 15.146 37.9533 15.0227 38.075C14.8994 38.1967 14.8301 38.3618 14.8301 38.534C14.8301 38.7061 14.8994 38.8712 15.0227 38.9929C15.146 39.1146 15.3133 39.183 15.4877 39.183H18.1181C18.2925 39.183 18.4597 39.1146 18.583 38.9929C18.7064 38.8712 18.7757 38.7061 18.7757 38.534C18.7757 38.3618 18.7064 38.1967 18.583 38.075C18.4597 37.9533 18.2925 37.8849 18.1181 37.8849ZM23.3789 37.8849H20.7484C20.5741 37.8849 20.4067 37.9533 20.2834 38.075C20.1601 38.1967 20.0908 38.3618 20.0908 38.534C20.0908 38.7061 20.1601 38.8712 20.2834 38.9929C20.4067 39.1146 20.5741 39.183 20.7484 39.183H23.3789C23.5532 39.183 23.7206 39.1146 23.8438 38.9929C23.9672 38.8712 24.0364 38.7061 24.0364 38.534C24.0364 38.3618 23.9672 38.1967 23.8438 38.075C23.7206 37.9533 23.5532 37.8849 23.3789 37.8849ZM28.6396 35.2887H26.0092C25.8349 35.2887 25.6675 35.357 25.5442 35.4787C25.4209 35.6006 25.3516 35.7657 25.3516 35.9378C25.3516 36.1098 25.4209 36.275 25.5442 36.3967C25.6675 36.5184 25.8349 36.5867 26.0092 36.5867H28.6396C28.8139 36.5867 28.9813 36.5184 29.1046 36.3967C29.2279 36.275 29.2972 36.1098 29.2972 35.9378C29.2972 35.7657 29.2279 35.6006 29.1046 35.4787C28.9813 35.357 28.8139 35.2887 28.6396 35.2887Z" fill="black"/>
</svg>
