<svg width="50" height="50" viewBox="0 0 50 50" fill="none" xmlns="http://www.w3.org/2000/svg">
<g clip-path="url(#clip0_206_102)">
<path d="M42.5403 21.9337C42.3949 17.4955 40.5619 13.2801 37.4152 10.148C34.097 6.82786 29.6869 5 24.9981 5C15.5281 5 7.79019 12.5405 7.45663 21.9337C6.72643 22.2573 6.10571 22.7858 5.66967 23.4551C5.23364 24.1245 5.00102 24.906 5 25.7049V30.338C5.00118 31.4321 5.43616 32.481 6.20949 33.2546C6.98283 34.0283 8.03136 34.4634 9.12501 34.4646C9.83261 34.4637 10.511 34.1821 11.0114 33.6816C11.5117 33.1811 11.7932 32.5024 11.794 31.7945V24.2477C11.794 22.8652 10.7341 21.7379 9.38649 21.6038C9.88394 13.4203 16.694 6.91399 24.9981 6.91399C29.1767 6.91399 33.106 8.54343 36.0632 11.5018C38.7788 14.2184 40.3681 17.7593 40.6072 21.6045C39.261 21.7397 38.2029 22.8664 38.2029 24.2477V31.794C38.2029 33.1879 39.2794 34.3223 40.6429 34.4403V36.3473C40.6418 37.3799 40.2311 38.3699 39.5013 39.0999C38.7713 39.83 37.7817 40.2406 36.7495 40.2417H33.8661C33.6718 39.6746 33.3048 39.1828 32.8167 38.8352C32.3286 38.4876 31.744 38.3017 31.1449 38.3034H28.1729C27.7462 38.3034 27.3368 38.394 26.9618 38.5688C26.4596 38.8009 26.0343 39.1718 25.736 39.6378C25.4377 40.1037 25.2788 40.6453 25.2781 41.1986C25.2781 41.9732 25.5798 42.7005 26.1263 43.2447C26.3942 43.5148 26.7131 43.7291 27.0644 43.8749C27.4157 44.0208 27.7925 44.0954 28.1729 44.0944H31.1449C32.377 44.0944 33.4631 43.2977 33.8681 42.1556H36.7495C39.9516 42.1556 42.5562 39.5501 42.5562 36.3473V34.0996C43.282 33.7742 43.8985 33.246 44.3314 32.5784C44.7643 31.9109 44.9951 31.1325 44.9963 30.3368V25.7036C44.9963 24.0231 43.9848 22.5762 42.5403 21.9337ZM9.88012 24.2477V31.794C9.88012 32.2105 9.54146 32.55 9.12437 32.55C8.53799 32.5493 7.97581 32.3159 7.56118 31.9012C7.14655 31.4863 6.91331 30.924 6.91263 30.3374V25.7043C6.91331 25.1177 7.14655 24.5552 7.56118 24.1405C7.97581 23.7257 8.53799 23.4924 9.12437 23.4917C9.54146 23.4917 9.88012 23.8311 9.88012 24.2477ZM32.1047 41.4041C32.0572 41.6238 31.936 41.8207 31.7614 41.9621C31.5866 42.1035 31.3689 42.1811 31.1442 42.1818H28.1723C27.9107 42.1818 27.6653 42.0797 27.4778 41.8921C27.3864 41.8015 27.3141 41.6937 27.2649 41.5748C27.2156 41.456 27.1904 41.3285 27.1907 41.1999C27.1914 40.9397 27.295 40.6904 27.479 40.5065C27.6629 40.3226 27.9122 40.2191 28.1723 40.2186H31.1442C31.4057 40.2186 31.6512 40.3201 31.838 40.5077C32.023 40.692 32.1251 40.9383 32.1251 41.1999C32.1257 41.27 32.118 41.3403 32.1047 41.4041ZM43.083 30.3374C43.0823 30.924 42.8491 31.4863 42.4344 31.9012C42.0198 32.3159 41.4577 32.5493 40.8712 32.55C40.6709 32.5498 40.4787 32.47 40.3371 32.3283C40.1954 32.1865 40.1157 31.9943 40.1155 31.794V24.2477C40.1155 23.8311 40.4541 23.4917 40.8712 23.4917C41.4577 23.4924 42.0198 23.7257 42.4344 24.1405C42.8491 24.5552 43.0823 25.1177 43.083 25.7043V30.3374Z" fill="black"/>
<path d="M31.1927 30.6673C32.2674 30.6662 33.2977 30.2386 34.0576 29.4783C34.8176 28.7181 35.2451 27.6874 35.2462 26.6122V18.3495C35.2462 17.2688 34.8241 16.2506 34.0574 15.4836C33.2909 14.7168 32.2736 14.2944 31.1927 14.2944H18.8036C17.7289 14.2956 16.6985 14.7232 15.9386 15.4834C15.1786 16.2436 14.7512 17.2744 14.75 18.3495V26.6122C14.7512 27.6874 15.1786 28.7181 15.9386 29.4783C16.6985 30.2386 17.7289 30.6662 18.8036 30.6673H18.8795V32.8084C18.8782 33.0699 18.9287 33.329 19.0279 33.5709C19.127 33.8127 19.2731 34.0326 19.4575 34.2179C19.6419 34.4031 19.8612 34.55 20.1026 34.6502C20.344 34.7504 20.6028 34.8018 20.8642 34.8015C21.1253 34.8021 21.384 34.75 21.6246 34.6483C21.8652 34.5468 22.0829 34.3977 22.2647 34.2101L25.8252 30.6673H31.1927ZM24.7571 29.0314L20.9037 32.8652C20.8865 32.8831 20.8737 32.8965 20.8373 32.8805C20.7933 32.8627 20.7933 32.834 20.7933 32.8084V29.7103C20.7933 29.4565 20.6926 29.2131 20.5132 29.0336C20.3338 28.8542 20.0904 28.7533 19.8368 28.7533H18.8043C18.2368 28.7526 17.6928 28.5269 17.2915 28.1255C16.8903 27.724 16.6646 27.1798 16.6639 26.6122V18.3495C16.6646 17.7819 16.8903 17.2377 17.2915 16.8363C17.6928 16.4349 18.2368 16.2091 18.8043 16.2084H31.1933C31.7634 16.2084 32.2998 16.4317 32.7054 16.8368C33.111 17.2426 33.3336 17.7798 33.3336 18.3495V26.6122C33.333 27.1798 33.1072 27.724 32.7059 28.1255C32.3048 28.5269 31.7608 28.7526 31.1933 28.7533H25.4318C25.1786 28.7533 24.9363 28.8535 24.7571 29.0314Z" fill="black"/>
<path d="M20.3509 21.2214C19.5728 21.2214 18.9395 21.8556 18.9395 22.6332C18.9395 23.411 19.5734 24.0451 20.3509 24.0451C21.1295 24.0451 21.7635 23.411 21.7635 22.6332C21.7635 21.8556 21.1302 21.2214 20.3509 21.2214ZM24.9975 21.2214C24.2195 21.2214 23.5862 21.8556 23.5862 22.6332C23.5862 23.411 24.2201 24.0451 24.9975 24.0451C25.7769 24.0451 26.4102 23.411 26.4102 22.6332C26.4102 21.8556 25.7769 21.2214 24.9975 21.2214ZM29.6442 21.2214C28.8662 21.2214 28.2329 21.8556 28.2329 22.6332C28.2329 23.411 28.8668 24.0451 29.6442 24.0451C30.423 24.0451 31.0568 23.411 31.0568 22.6332C31.0568 21.8556 30.423 21.2214 29.6442 21.2214Z" fill="black"/>
</g>
<defs>
<clipPath id="clip0_206_102">
<rect width="40" height="40" fill="white" transform="translate(5 5)"/>
</clipPath>
</defs>
</svg>
