<svg width="50" height="50" viewBox="0 0 50 50" fill="none" xmlns="http://www.w3.org/2000/svg">
<path d="M34.8897 45C35.6473 44.999 36.3734 44.6977 36.9091 44.162C37.4446 43.6263 37.7457 42.9 37.7464 42.1423V7.85674C37.7454 7.09939 37.4443 6.37333 36.9086 5.83781C36.3732 5.30227 35.6471 5.00098 34.8897 5H15.8567C15.0994 5.00098 14.3733 5.30227 13.8378 5.83781C13.3023 6.37333 13.001 7.09939 13 7.85674V42.1423C13.001 42.8997 13.3023 43.6258 13.8378 44.1612C14.3733 44.6969 15.0994 44.9981 15.8567 44.999L34.8897 45ZM29.1532 34.5843L27.698 30.1368L31.4878 27.3954L26.8104 27.4037L25.3737 22.9516L23.9361 27.4037L19.2588 27.3945L23.0484 30.1368L21.5942 34.5843L25.3737 31.8274L29.1532 34.5843ZM34.3814 43.3392H16.3661C15.4249 43.3392 14.6591 42.5743 14.6591 41.6341V8.36609C14.6591 7.42491 15.4249 6.65905 16.3661 6.65905H34.3814C35.3224 6.65905 36.0866 7.42491 36.0866 8.36609V41.6321C36.0866 42.5733 35.3217 43.3392 34.3814 43.3392ZM34.3814 42.4505C34.5978 42.45 34.8052 42.3638 34.9582 42.2108C35.1114 42.0578 35.1973 41.8504 35.1978 41.6341V39.3917H15.5486V41.6341C15.5486 42.0833 15.9158 42.4505 16.3661 42.4505H34.3814ZM35.1978 38.5022V8.36609C35.1976 8.14941 35.1116 7.94166 34.9586 7.78829C34.8057 7.63489 34.598 7.54837 34.3814 7.54764H22.5308V18.5557C22.5309 18.6142 22.5195 18.6721 22.4972 18.7262C22.4749 18.7803 22.4422 18.8294 22.4009 18.8708C22.3595 18.9122 22.3105 18.9451 22.2565 18.9675C22.2024 18.9899 22.1445 19.0014 22.086 19.0014H15.5486V38.5022H35.1978ZM21.6413 7.54764H16.3661C16.1492 7.54812 15.9414 7.63455 15.7882 7.78795C15.635 7.94137 15.5488 8.14926 15.5486 8.36609V18.1119H21.6413V7.54764Z" fill="black"/>
</svg>
