<svg width="50" height="50" viewBox="0 0 50 50" fill="none" xmlns="http://www.w3.org/2000/svg">
<path fill-rule="evenodd" clip-rule="evenodd" d="M25 40.9998C23.6193 40.9998 22.5 40.0381 22.5 38.8518L22.5 10.9283C22.5 9.74195 23.6193 8.78027 25 8.78027C26.3807 8.78027 27.5 9.74195 27.5 10.9283L27.5 38.8518C27.5 40.0381 26.3807 40.9998 25 40.9998Z" fill="black"/>
<path fill-rule="evenodd" clip-rule="evenodd" d="M5.74745 27.4958C4.76281 26.6642 4.74924 25.3043 5.71714 24.4582L22.7096 9.60603C23.9693 8.50502 26.0307 8.50502 27.2904 9.60603L44.2829 24.4582C45.2508 25.3043 45.2372 26.6642 44.2526 27.4958C43.2679 28.3274 41.6851 28.3158 40.7171 27.4698L25 13.7323L9.28286 27.4698C8.31495 28.3158 6.7321 28.3274 5.74745 27.4958Z" fill="black"/>
</svg>
