<svg width="50" height="50" viewBox="0 0 50 50" fill="none" xmlns="http://www.w3.org/2000/svg">
<path fill-rule="evenodd" clip-rule="evenodd" d="M23.3757 15.0804C22.6521 15.8038 22.6521 16.9812 23.3757 17.7046C23.7258 18.0546 24.1914 18.2468 24.6875 18.2468C25.1836 18.2468 25.6498 18.0546 25.9993 17.7046C26.349 17.3546 26.5422 16.8881 26.5422 16.3922C26.5428 16.1486 26.4953 15.9072 26.4022 15.6821C26.3092 15.4569 26.1725 15.2524 26 15.0804C25.2757 14.3569 24.0992 14.3569 23.3757 15.0804ZM31.8592 9.22026C29.9439 7.30438 27.3969 6.24986 24.6874 6.24986C21.9779 6.24986 19.4311 7.30438 17.5156 9.22026C17.4576 9.27837 17.3888 9.32449 17.313 9.35596C17.2372 9.38741 17.1559 9.40361 17.0738 9.40361C16.9918 9.40361 16.9105 9.38741 16.8347 9.35596C16.7589 9.32449 16.6901 9.27837 16.6321 9.22026C16.5739 9.16234 16.5278 9.0935 16.4963 9.01768C16.4647 8.94184 16.4486 8.86056 16.4486 8.77846C16.4486 8.69635 16.4647 8.61507 16.4963 8.53926C16.5278 8.46344 16.5739 8.3946 16.6321 8.33665C18.7835 6.185 21.6444 5 24.6874 5C27.7304 5 30.5913 6.185 32.7431 8.33665C32.8012 8.39465 32.8473 8.46349 32.8786 8.53931C32.9102 8.61512 32.9262 8.69638 32.9262 8.77846C32.9262 8.86054 32.9102 8.94179 32.8786 9.01761C32.8473 9.09342 32.8012 9.16229 32.7431 9.22026C32.6851 9.27857 32.6161 9.3248 32.5403 9.3563C32.4643 9.3878 32.383 9.40395 32.3009 9.40378C32.2188 9.40387 32.1375 9.3877 32.0617 9.3562C31.9859 9.32471 31.917 9.27849 31.8592 9.22026ZM28.4875 12.592C28.5456 12.6502 28.6143 12.6965 28.6903 12.728C28.7661 12.7595 28.8477 12.7757 28.9298 12.7757C29.0891 12.7757 29.2493 12.714 29.371 12.592C29.429 12.5341 29.4752 12.4652 29.5068 12.3894C29.5383 12.3136 29.5546 12.2323 29.5546 12.1502C29.5546 12.0681 29.5383 11.9868 29.5068 11.911C29.4752 11.8352 29.429 11.7663 29.371 11.7084C26.7883 9.12565 22.5868 9.12565 20.0038 11.7084C19.9457 11.7663 19.8995 11.8352 19.868 11.911C19.8365 11.9868 19.8203 12.0681 19.8203 12.1502C19.8203 12.2323 19.8365 12.3136 19.868 12.3894C19.8995 12.4652 19.9457 12.5341 20.0038 12.592C20.0618 12.6501 20.1306 12.6963 20.2064 12.7278C20.2822 12.7593 20.3635 12.7755 20.4456 12.7755C20.5277 12.7755 20.609 12.7593 20.6848 12.7278C20.7606 12.6963 20.8294 12.6501 20.8874 12.592C22.9828 10.4968 26.3921 10.4968 28.4875 12.592ZM37.2369 44.3752C37.2369 44.4572 37.2206 44.5384 37.1893 44.6144C37.1578 44.6901 37.1119 44.7591 37.0538 44.8171C36.9958 44.8752 36.9268 44.9211 36.851 44.9526C36.775 44.984 36.6939 45 36.6118 45H12.7632C12.6811 45 12.5998 44.984 12.5239 44.9526C12.4481 44.9211 12.3792 44.8752 12.3211 44.8171C12.2631 44.7591 12.217 44.6901 12.1856 44.6144C12.1542 44.5384 12.138 44.4572 12.138 44.3752C12.138 44.2931 12.1542 44.2117 12.1856 44.136C12.217 44.06 12.2631 43.9912 12.3211 43.9332C12.3792 43.8752 12.4481 43.829 12.5239 43.7977C12.5998 43.7661 12.6811 43.7501 12.7632 43.7501H36.6118C36.6939 43.7501 36.775 43.7661 36.851 43.7977C36.9268 43.829 36.9958 43.8752 37.0538 43.9332C37.1119 43.9912 37.1578 44.06 37.1893 44.136C37.2206 44.2117 37.2369 44.2931 37.2369 44.3752ZM16.3295 40.3306C16.2475 40.3306 16.1662 40.3144 16.0904 40.283C16.0145 40.2517 15.9456 40.2056 15.8876 40.1475C15.8296 40.0895 15.7836 40.0205 15.7522 39.9447C15.7208 39.869 15.7047 39.7876 15.7047 39.7055C15.7047 39.3602 15.9841 39.0805 16.3295 39.0805H33.0455C33.1275 39.0805 33.2086 39.0967 33.2847 39.1281C33.3604 39.1594 33.4294 39.2055 33.4874 39.2636C33.5455 39.3216 33.5914 39.3906 33.6229 39.4663C33.6543 39.5421 33.6705 39.6235 33.6705 39.7055C33.6705 39.7876 33.6543 39.869 33.6229 39.9447C33.5914 40.0205 33.5455 40.0895 33.4874 40.1475C33.4294 40.2056 33.3604 40.2515 33.2847 40.283C33.2086 40.3144 33.1275 40.3306 33.0455 40.3306H16.3295ZM8.47627 24.8876C8.38858 24.8876 8.30177 24.9048 8.22073 24.9384C8.13972 24.9719 8.06611 25.0211 8.00409 25.0831C7.94209 25.145 7.89292 25.2187 7.85938 25.2997C7.82582 25.3807 7.80858 25.4675 7.8086 25.5552V34.6527H6.94595C5.87281 34.6527 5 33.7797 5 32.7066V17.5785C5 16.5054 5.87281 15.6325 6.94595 15.6325H21.8326C21.5721 16.6173 21.8272 17.711 22.5983 18.482C23.155 19.0386 23.9003 19.3462 24.6874 19.3462C25.4744 19.3462 26.2207 19.0385 26.777 18.4815C27.0516 18.2073 27.2694 17.8816 27.4177 17.523C27.5661 17.1645 27.6421 16.7801 27.6415 16.3921C27.6415 16.1327 27.608 15.8777 27.5432 15.6325H42.4291C43.5023 15.6325 44.3753 16.5054 44.3753 17.5785V32.7066C44.3753 33.7797 43.5025 34.6527 42.4291 34.6527H41.5663V25.5552C41.5663 25.4675 41.5491 25.3807 41.5156 25.2997C41.4818 25.2187 41.4328 25.145 41.3708 25.0831C41.3087 25.0211 41.2351 24.9719 41.154 24.9384C41.0731 24.9048 40.9862 24.8876 40.8985 24.8876H8.47627ZM30.7183 21.0666C30.7183 21.4346 31.018 21.7342 31.3859 21.7342H41.6914C42.0603 21.7342 42.3592 21.4346 42.3592 21.0666V18.9387C42.3592 18.851 42.342 18.7642 42.3084 18.6832C42.2747 18.6021 42.2256 18.5285 42.1635 18.4666C42.1015 18.4046 42.028 18.3554 41.9469 18.3219C41.866 18.2883 41.779 18.2711 41.6914 18.2711H31.3859C31.018 18.2711 30.7183 18.5699 30.7183 18.9387V21.0666ZM21.8375 19.487H9.42066C9.333 19.487 9.24623 19.5043 9.16524 19.5378C9.08428 19.5714 9.01072 19.6206 8.94875 19.6826C8.8868 19.7445 8.83765 19.8182 8.80414 19.8991C8.7706 19.9801 8.75336 20.0669 8.75338 20.1545C8.75336 20.2422 8.7706 20.329 8.80411 20.41C8.83762 20.491 8.88678 20.5646 8.94872 20.6265C9.0107 20.6885 9.08428 20.7377 9.16524 20.7713C9.24621 20.8048 9.333 20.8221 9.42066 20.8221H21.8375C21.9252 20.8222 22.0121 20.805 22.0931 20.7714C22.1741 20.7379 22.2477 20.6887 22.3098 20.6267C22.3717 20.5647 22.4209 20.4911 22.4545 20.4101C22.488 20.3291 22.5052 20.2422 22.5052 20.1545C22.5052 20.0669 22.488 19.98 22.4545 19.899C22.4209 19.818 22.3717 19.7444 22.3098 19.6824C22.2477 19.6204 22.1741 19.5712 22.0931 19.5376C22.0121 19.5041 21.9252 19.4869 21.8375 19.487ZM32.0532 19.6063V20.3991H41.0238V19.6063H32.0532ZM9.14395 31.1053V34.6525H40.2314V31.1053H9.14395ZM40.2314 26.2228H9.14395V29.7701H40.2314V26.2228Z" fill="black"/>
</svg>
