<svg width="50" height="50" viewBox="0 0 50 50" fill="none" xmlns="http://www.w3.org/2000/svg">
<path d="M42.9998 5H6.63637C4.63176 5 3 6.63088 3 8.63634V34.0909C3 36.0964 4.63176 37.7271 6.63637 37.7271H19.3676C19.3295 39.1776 19.0525 41.4977 18.0124 42.593C17.6306 42.9945 17.1938 43.1816 16.6363 43.1816C16.5169 43.1816 16.3986 43.2049 16.2883 43.2506C16.178 43.2964 16.0777 43.3633 15.9933 43.4477C15.9089 43.5322 15.8419 43.6324 15.7962 43.7429C15.7506 43.8531 15.7271 43.9715 15.7272 44.0908C15.7271 44.2101 15.7506 44.3285 15.7962 44.4387C15.8419 44.5492 15.9089 44.6494 15.9933 44.7339C16.0777 44.8183 16.178 44.8853 16.2883 44.931C16.3986 44.9767 16.5169 45 16.6363 45H32.9999C33.1191 45 33.2375 44.9767 33.3477 44.931C33.4582 44.8853 33.5584 44.8183 33.6429 44.7339C33.7274 44.6494 33.7943 44.5492 33.84 44.4387C33.8854 44.3285 33.909 44.2101 33.909 44.0908C33.909 43.9715 33.8854 43.8531 33.84 43.7429C33.7943 43.6324 33.7274 43.5322 33.6429 43.4477C33.5584 43.3633 33.4582 43.2964 33.3477 43.2506C33.2375 43.2049 33.1191 43.1816 32.9999 43.1816C32.4422 43.1816 32.0056 42.9951 31.6256 42.594C30.588 41.504 30.3092 39.1806 30.2696 37.7271H42.9998C45.0043 37.7271 46.6362 36.0964 46.6362 34.0909V8.63634C46.6362 6.63088 45.0043 5 42.9998 5ZM24.8181 35.9141C23.8131 35.9141 22.9946 35.0958 22.9946 34.0906C22.9946 33.0857 23.8131 32.2671 24.8181 32.2671C25.8231 32.2671 26.6416 33.0857 26.6416 34.0906C26.6416 35.0958 25.8231 35.9141 24.8181 35.9141ZM6.63637 30.4544V8.63634H42.9998L43.0013 30.4544H6.63637Z" fill="black"/>
</svg>
