<svg width="249" height="37" viewBox="0 0 249 37" fill="none" xmlns="http://www.w3.org/2000/svg">
<path d="M52.72 8.48625L48.25 10.8429C47.65 8.04369 46.38 6.64961 44.43 6.64961C42.35 6.64961 41.32 7.71176 41.32 9.83607C41.32 10.6769 41.51 11.3961 41.9 11.9825C42.29 12.5689 43.17 13.0779 44.53 13.5094C46.81 14.2396 48.49 14.9698 49.55 15.7111C50.61 16.4524 51.5 17.6473 52.23 19.2959C52.96 20.9445 53.32 22.7811 53.32 24.8169C53.32 28.0034 52.54 30.7694 50.98 33.0929C49.42 35.4163 47.11 36.5891 44.05 36.5891C41.75 36.5891 39.8 35.7704 38.19 34.1218C36.58 32.4733 35.51 30.0281 35 26.7863L39.86 25.0492C40.41 28.3464 41.92 29.9949 44.42 29.9949C45.62 29.9949 46.52 29.6298 47.11 28.8996C47.7 28.1693 47.99 27.2953 47.99 26.2774C47.99 25.2595 47.72 24.4407 47.19 23.8765C46.65 23.3122 45.62 22.77 44.09 22.2722C41.24 21.3428 39.2 20.0704 37.99 18.455C36.78 16.8397 36.17 14.483 36.17 11.374C36.17 8.26497 36.89 5.58745 38.34 3.42994C39.79 1.27244 41.75 0.199219 44.24 0.199219C48.64 0.199219 51.46 2.96525 52.72 8.50838V8.48625Z" fill="#118B91"/>
<path d="M74.43 0.719177V22.7147C74.43 26.2662 74.17 28.9106 73.66 30.6476C73.15 32.3847 72.2 33.8009 70.81 34.9184C69.42 36.0359 67.65 36.5891 65.5 36.5891C63.35 36.5891 61.63 36.0912 60.35 35.0844C59.07 34.0886 58.12 32.6613 57.48 30.8136C56.85 28.9659 56.53 26.2662 56.53 22.7147V0.719177H62.23V22.7147C62.23 24.6177 62.33 26.0118 62.53 26.908C62.73 27.8042 63.14 28.5123 63.75 29.0433C64.36 29.5744 65.1 29.8289 65.99 29.8289C66.98 29.8289 67.78 29.5744 68.4 29.0544C69.02 28.5344 69.43 27.8484 69.63 26.9965C69.83 26.1445 69.93 24.7173 69.93 22.7147V0.719177H74.43Z" fill="#118B91"/>
<path d="M88.53 36.0359L83 7.23595V36.0359H78.6V0.719177H86.78L90.71 21.8627L94.85 0.719177H103.05V36.0359H97.76V7.23595L92.12 36.0359H88.53Z" fill="#118B91"/>
<path d="M118.53 0.719177L125.55 36.0359H119.91L118.53 28.7667H111.28L109.88 36.0359H105.28L112.46 0.719177H118.54H118.53ZM112.54 22.25H117.29L114.94 9.85815L112.54 22.25Z" fill="#118B91"/>
<path d="M143.44 8.48625L138.97 10.8429C138.37 8.04369 137.1 6.64961 135.15 6.64961C133.07 6.64961 132.04 7.71176 132.04 9.83607C132.04 10.6769 132.23 11.3961 132.62 11.9825C133.01 12.5689 133.89 13.0779 135.25 13.5094C137.53 14.2396 139.21 14.9698 140.27 15.7111C141.33 16.4524 142.22 17.6473 142.95 19.2959C143.68 20.9445 144.04 22.7811 144.04 24.8169C144.04 28.0034 143.26 30.7694 141.7 33.0929C140.14 35.4163 137.83 36.5891 134.77 36.5891C132.47 36.5891 130.52 35.7704 128.91 34.1218C127.3 32.4733 126.23 30.0281 125.72 26.7863L130.58 25.0492C131.13 28.3464 132.64 29.9949 135.14 29.9949C136.34 29.9949 137.24 29.6298 137.83 28.8996C138.42 28.1693 138.71 27.2953 138.71 26.2774C138.71 25.2595 138.44 24.4407 137.91 23.8765C137.37 23.3122 136.34 22.77 134.81 22.2722C131.96 21.3428 129.92 20.0704 128.71 18.455C127.5 16.8397 126.89 14.483 126.89 11.374C126.89 8.26497 127.61 5.58745 129.06 3.42994C130.51 1.27244 132.47 0.199219 134.96 0.199219C139.36 0.199219 142.18 2.96525 143.44 8.50838V8.48625Z" fill="#118B91"/>
<path d="M164.79 0.719177V36.0359H159.63V21.4644H152.64V36.0359H147.48V0.719177H152.64V14.483H159.63V0.719177H164.79Z" fill="#118B91"/>
<path d="M185.02 36.0359H182.21V4.60269H175.79V0.719177H191.45V4.60269H185.01V36.0469L185.02 36.0359Z" fill="#404956"/>
<path d="M209.07 32.1634V36.0469H194.57V0.719177H208.76V4.60269H197.38V15.8328H206.41V19.4286H197.38V32.1634H209.07Z" fill="#404956"/>
<path d="M226.43 24.1641L228.99 25.0713C227.76 32.8715 224.99 36.7661 220.68 36.7661C217.84 36.7661 215.62 34.9626 214.01 31.3557C212.4 27.7488 211.59 23.3121 211.59 18.0456C211.59 12.7791 212.43 8.24278 214.12 4.94567C215.81 1.64856 218.07 0 220.9 0C225.1 0 227.8 3.78393 229 11.3629L226.36 12.1927C225.4 6.57209 223.57 3.7618 220.89 3.7618C218.91 3.7618 217.37 5.06737 216.28 7.6785C215.19 10.2896 214.65 13.9629 214.65 18.6873C214.65 23.0134 215.21 26.4875 216.32 29.0987C217.44 31.7098 218.91 33.0154 220.75 33.0154C223.61 33.0154 225.5 30.0612 226.43 24.1641Z" fill="#404956"/>
<path d="M248.48 36.0359H245.67V19.2184H235.28V36.0359H232.47V0.719177H235.28V15.3349H245.67V0.719177H248.48V36.0359Z" fill="#404956"/>
<path d="M25.6654 0H2.25934C1.00911 0 0 1.11649 0 2.49976V18.9606C0 20.3242 1.00018 21.4308 2.23255 21.4308H8.83196V30.2046H0V36.9431H12.6898C13.9222 36.9431 14.9313 35.8365 14.9313 34.4631V17.1624C14.9313 15.7989 13.9311 14.6923 12.6987 14.6923H6.09039V6.73849H25.6654V0Z" fill="#118B91"/>
<path d="M25.6654 14.6924H22.1022V36.9333H25.6654V14.6924Z" fill="#404956"/>
<path d="M2.35757 22.0335C0.741206 22.0335 0 20.5119 0 20.5119V29.6118H8.30508V22.0236H2.35757V22.0335Z" fill="#404956"/>
<path d="M6.61743 7.34113V14.0796H13.2168C14.4581 14.0796 15.4673 15.1961 15.4673 16.5695V34.2753C15.2887 36.4293 14.0384 36.943 14.0384 36.943H21.5576V14.0796H25.6566V7.34113H6.61743Z" fill="#F16A4F"/>
</svg>
